<svg xmlns="http://www.w3.org/2000/svg" xmlns:xlink="http://www.w3.org/1999/xlink" width="500" zoomAndPan="magnify" viewBox="0 0 375 374.999991" height="500" preserveAspectRatio="xMidYMid meet" version="1.0"><defs><g/><clipPath id="4d82bb01a2"><path d="M 73.171875 31.878906 L 301.921875 31.878906 L 301.921875 259.878906 L 73.171875 259.878906 Z M 73.171875 31.878906 " clip-rule="nonzero"/></clipPath></defs><path fill="#fbb040" d="M 176.894531 77.722656 C 171.53125 80.628906 154.378906 91.3125 151.25 110.171875 C 153.332031 108.484375 155.53125 106.976562 157.855469 105.640625 C 164.621094 101.792969 171.878906 99.453125 179.621094 98.628906 Z M 176.894531 77.722656 " fill-opacity="1" fill-rule="nonzero"/><path fill="#fbb040" d="M 138.269531 135.992188 C 135.992188 147.683594 139.125 159.707031 147.089844 169.847656 C 151.632812 175.585938 157.125 180.191406 163.566406 183.667969 L 163.679688 183.730469 C 169.023438 186.617188 174.679688 188.636719 180.648438 189.789062 C 185.417969 190.738281 190.234375 191.078125 195.089844 190.8125 C 199.949219 190.542969 204.699219 189.675781 209.335938 188.210938 C 209.53125 188.082031 209.75 188.011719 209.984375 188 C 225.347656 182.824219 237.128906 171.097656 240.109375 155.800781 C 242.382812 144.113281 239.25 132.089844 231.292969 121.949219 C 223.332031 111.804688 211.363281 104.667969 197.722656 102.015625 C 193.921875 101.277344 190.085938 100.90625 186.214844 100.902344 C 184.5625 100.902344 182.921875 100.976562 181.292969 101.117188 L 181.097656 101.117188 C 177.234375 101.441406 173.449219 102.175781 169.746094 103.320312 C 166.042969 104.46875 162.503906 106 159.132812 107.914062 C 147.957031 114.339844 140.542969 124.308594 138.269531 135.992188 Z M 138.269531 135.992188 " fill-opacity="1" fill-rule="nonzero"/><path fill="#fbb040" d="M 233.347656 120.3125 C 236.332031 124.085938 238.707031 128.214844 240.46875 132.691406 C 247.199219 114.203125 236.796875 96.21875 233.375 91.046875 L 220.824219 108.714844 C 225.605469 111.925781 229.78125 115.792969 233.347656 120.3125 Z M 233.347656 120.3125 " fill-opacity="1" fill-rule="nonzero"/><path fill="#fbb040" d="M 160.847656 185.152344 C 155.46875 182.042969 150.738281 178.144531 146.65625 173.460938 C 144.972656 178.25 134.8125 208.46875 142.171875 219.078125 C 143.796875 221.40625 146.167969 222.566406 149.410156 222.585938 C 150.429688 222.570312 151.394531 222.34375 152.3125 221.898438 C 153.226562 221.457031 154.007812 220.839844 154.648438 220.050781 C 156.722656 217.613281 158.691406 212.265625 156.3125 200.625 C 156.042969 199.246094 155.941406 197.859375 156.007812 196.457031 C 156.070312 195.054688 156.300781 193.683594 156.695312 192.335938 C 157.089844 190.992188 157.636719 189.710938 158.339844 188.496094 C 159.042969 187.28125 159.878906 186.167969 160.847656 185.152344 Z M 160.847656 185.152344 " fill-opacity="1" fill-rule="nonzero"/><path fill="#fbb040" d="M 216.402344 207.394531 C 217.671875 208.238281 219.203125 208.25 221.066406 207.441406 C 230.199219 203.476562 226.058594 187.691406 224.742188 183.410156 C 220.617188 186.339844 216.167969 188.628906 211.386719 190.277344 C 211.472656 194.9375 212.449219 204.769531 216.402344 207.394531 Z M 216.402344 207.394531 " fill-opacity="1" fill-rule="nonzero"/><path fill="#d1d3d4" d="M 291.523438 128.121094 L 265.453125 128.121094 C 265.152344 128.121094 264.882812 128.027344 264.648438 127.84375 C 264.410156 127.660156 264.253906 127.417969 264.183594 127.128906 C 262.316406 119.542969 259.378906 112.402344 255.371094 105.699219 C 255.21875 105.441406 255.160156 105.164062 255.195312 104.867188 C 255.234375 104.570312 255.359375 104.316406 255.570312 104.105469 L 274.109375 85.582031 C 274.445312 85.242188 274.75 84.871094 275.015625 84.472656 C 275.28125 84.074219 275.507812 83.65625 275.6875 83.210938 C 275.871094 82.769531 276.011719 82.3125 276.105469 81.84375 C 276.199219 81.371094 276.246094 80.898438 276.246094 80.417969 C 276.246094 79.941406 276.199219 79.464844 276.105469 78.996094 C 276.011719 78.527344 275.871094 78.070312 275.6875 77.625 C 275.507812 77.183594 275.28125 76.761719 275.015625 76.363281 C 274.75 75.964844 274.445312 75.597656 274.109375 75.257812 L 259.109375 60.269531 C 258.769531 59.929688 258.398438 59.628906 258 59.363281 C 257.601562 59.097656 257.179688 58.875 256.738281 58.691406 C 256.292969 58.507812 255.839844 58.367188 255.367188 58.277344 C 254.898438 58.183594 254.421875 58.136719 253.941406 58.136719 C 253.464844 58.136719 252.988281 58.183594 252.519531 58.277344 C 252.046875 58.367188 251.589844 58.507812 251.148438 58.691406 C 250.703125 58.875 250.285156 59.097656 249.882812 59.363281 C 249.484375 59.628906 249.117188 59.929688 248.777344 60.269531 L 230.441406 78.601562 C 230.230469 78.816406 229.972656 78.9375 229.671875 78.972656 C 229.371094 79.007812 229.09375 78.945312 228.835938 78.789062 C 221.863281 74.507812 214.402344 71.390625 206.453125 69.4375 C 206.160156 69.367188 205.921875 69.214844 205.738281 68.976562 C 205.550781 68.742188 205.460938 68.472656 205.460938 68.171875 L 205.460938 42.128906 C 205.460938 41.648438 205.414062 41.175781 205.320312 40.703125 C 205.226562 40.234375 205.085938 39.777344 204.902344 39.335938 C 204.71875 38.890625 204.492188 38.46875 204.226562 38.070312 C 203.960938 37.671875 203.65625 37.304688 203.316406 36.964844 C 202.976562 36.625 202.609375 36.320312 202.210938 36.054688 C 201.8125 35.789062 201.390625 35.5625 200.945312 35.378906 C 200.503906 35.195312 200.046875 35.054688 199.574219 34.960938 C 199.105469 34.867188 198.628906 34.820312 198.148438 34.820312 L 176.945312 34.820312 C 176.464844 34.820312 175.988281 34.867188 175.519531 34.960938 C 175.046875 35.054688 174.589844 35.195312 174.148438 35.378906 C 173.703125 35.5625 173.28125 35.789062 172.882812 36.054688 C 172.484375 36.320312 172.117188 36.625 171.777344 36.964844 C 171.4375 37.300781 171.132812 37.671875 170.867188 38.070312 C 170.601562 38.46875 170.375 38.890625 170.191406 39.332031 C 170.007812 39.777344 169.867188 40.234375 169.773438 40.703125 C 169.679688 41.175781 169.632812 41.648438 169.632812 42.128906 L 169.632812 68.171875 C 169.632812 68.472656 169.542969 68.742188 169.355469 68.976562 C 169.171875 69.214844 168.933594 69.367188 168.640625 69.4375 C 161.101562 71.292969 153.992188 74.199219 147.320312 78.160156 C 147.0625 78.3125 146.785156 78.371094 146.488281 78.332031 C 146.191406 78.296875 145.933594 78.171875 145.722656 77.960938 L 127.167969 59.421875 C 126.828125 59.082031 126.460938 58.777344 126.0625 58.511719 C 125.660156 58.246094 125.242188 58.019531 124.796875 57.835938 C 124.355469 57.652344 123.898438 57.511719 123.425781 57.417969 C 122.957031 57.324219 122.480469 57.277344 122 57.277344 C 121.519531 57.277344 121.046875 57.324219 120.574219 57.417969 C 120.105469 57.511719 119.648438 57.652344 119.203125 57.835938 C 118.761719 58.019531 118.339844 58.246094 117.941406 58.511719 C 117.542969 58.777344 117.171875 59.082031 116.835938 59.421875 L 101.839844 74.40625 C 101.5 74.742188 101.199219 75.113281 100.933594 75.511719 C 100.667969 75.910156 100.441406 76.332031 100.257812 76.773438 C 100.074219 77.214844 99.9375 77.671875 99.84375 78.144531 C 99.75 78.613281 99.703125 79.085938 99.703125 79.566406 C 99.703125 80.046875 99.75 80.519531 99.84375 80.992188 C 99.9375 81.460938 100.074219 81.917969 100.257812 82.359375 C 100.441406 82.800781 100.667969 83.222656 100.933594 83.621094 C 101.199219 84.019531 101.5 84.390625 101.839844 84.726562 L 120.160156 103.03125 C 120.375 103.246094 120.5 103.503906 120.535156 103.804688 C 120.570312 104.109375 120.503906 104.386719 120.34375 104.644531 C 116.019531 111.644531 112.871094 119.140625 110.902344 127.128906 C 110.832031 127.417969 110.679688 127.660156 110.441406 127.84375 C 110.203125 128.027344 109.9375 128.121094 109.636719 128.121094 L 83.570312 128.121094 C 83.089844 128.121094 82.617188 128.167969 82.144531 128.261719 C 81.675781 128.355469 81.21875 128.492188 80.773438 128.675781 C 80.332031 128.859375 79.910156 129.085938 79.511719 129.351562 C 79.109375 129.617188 78.742188 129.921875 78.402344 130.261719 C 78.0625 130.601562 77.757812 130.96875 77.492188 131.367188 C 77.226562 131.765625 77 132.1875 76.816406 132.628906 C 76.632812 133.074219 76.492188 133.53125 76.398438 134 C 76.304688 134.46875 76.257812 134.945312 76.257812 135.425781 L 76.257812 156.613281 C 76.257812 157.09375 76.304688 157.566406 76.398438 158.039062 C 76.492188 158.507812 76.632812 158.964844 76.816406 159.40625 C 77 159.851562 77.226562 160.269531 77.492188 160.667969 C 77.761719 161.070312 78.0625 161.4375 78.402344 161.777344 C 78.742188 162.113281 79.113281 162.417969 79.511719 162.683594 C 79.910156 162.949219 80.332031 163.175781 80.773438 163.359375 C 81.21875 163.542969 81.675781 163.683594 82.144531 163.777344 C 82.617188 163.871094 83.089844 163.917969 83.570312 163.917969 L 109.636719 163.917969 C 109.9375 163.917969 110.203125 164.007812 110.441406 164.195312 C 110.679688 164.378906 110.832031 164.617188 110.902344 164.910156 C 112.898438 173.011719 116.105469 180.597656 120.527344 187.671875 C 120.6875 187.929688 120.753906 188.210938 120.71875 188.515625 C 120.683594 188.816406 120.558594 189.074219 120.339844 189.289062 L 102.074219 207.542969 C 101.734375 207.882812 101.433594 208.25 101.164062 208.648438 C 100.898438 209.050781 100.675781 209.46875 100.492188 209.914062 C 100.308594 210.355469 100.171875 210.8125 100.078125 211.28125 C 99.984375 211.753906 99.9375 212.226562 99.9375 212.707031 C 99.9375 213.1875 99.984375 213.660156 100.078125 214.132812 C 100.171875 214.601562 100.308594 215.058594 100.492188 215.5 C 100.675781 215.945312 100.898438 216.363281 101.164062 216.765625 C 101.433594 217.164062 101.734375 217.53125 102.074219 217.871094 L 117.066406 232.855469 C 117.40625 233.191406 117.777344 233.496094 118.175781 233.761719 C 118.574219 234.027344 118.996094 234.253906 119.4375 234.4375 C 119.882812 234.621094 120.339844 234.757812 120.808594 234.851562 C 121.28125 234.945312 121.757812 234.992188 122.234375 234.992188 C 122.714844 234.992188 123.191406 234.945312 123.660156 234.851562 C 124.132812 234.757812 124.589844 234.621094 125.03125 234.4375 C 125.476562 234.253906 125.898438 234.027344 126.296875 233.761719 C 126.695312 233.496094 127.066406 233.191406 127.40625 232.855469 L 139.714844 220.558594 C 139.777344 220.5 139.84375 220.445312 139.914062 220.394531 C 131.394531 207.679688 143.890625 173.34375 144.433594 171.898438 C 144.523438 171.648438 144.679688 171.445312 144.898438 171.292969 C 136.5625 160.578125 133.296875 147.878906 135.703125 135.503906 C 136.5625 131.15625 138.0625 127.042969 140.207031 123.164062 C 142.351562 119.285156 145.039062 115.828125 148.265625 112.789062 C 148.261719 112.757812 148.261719 112.726562 148.265625 112.695312 C 150.558594 87.003906 177.144531 74.652344 177.414062 74.53125 C 177.605469 74.445312 177.800781 74.40625 178.007812 74.414062 C 178.214844 74.421875 178.410156 74.476562 178.59375 74.578125 C 178.773438 74.675781 178.921875 74.8125 179.039062 74.984375 C 179.15625 75.15625 179.226562 75.34375 179.253906 75.550781 L 182.226562 98.410156 C 187.605469 98.0625 192.941406 98.402344 198.230469 99.429688 C 205.5 100.828125 212.296875 103.449219 218.617188 107.296875 L 232.308594 88.011719 C 232.566406 87.65625 232.914062 87.472656 233.351562 87.464844 C 233.792969 87.449219 234.148438 87.621094 234.410156 87.976562 C 234.59375 88.207031 252.257812 111.605469 242.191406 135.425781 C 242.074219 135.703125 241.882812 135.914062 241.613281 136.054688 C 242.613281 139.328125 243.203125 142.675781 243.382812 146.097656 C 243.5625 149.515625 243.328125 152.90625 242.679688 156.269531 C 240.675781 166.542969 234.964844 175.289062 226.941406 181.722656 C 227.875 184.449219 234.246094 204.550781 222.097656 209.824219 C 220.964844 210.347656 219.777344 210.621094 218.53125 210.644531 C 217.226562 210.652344 216.035156 210.289062 214.953125 209.554688 C 209.824219 206.136719 208.925781 195.515625 208.789062 191.082031 C 203.324219 192.6875 197.746094 193.488281 192.050781 193.484375 C 187.035156 193.476562 182.085938 192.875 177.214844 191.683594 C 172.339844 190.492188 167.675781 188.738281 163.222656 186.429688 C 162.320312 187.292969 161.535156 188.257812 160.875 189.316406 C 160.210938 190.378906 159.691406 191.503906 159.3125 192.695312 C 158.929688 193.886719 158.703125 195.109375 158.632812 196.355469 C 158.558594 197.605469 158.640625 198.84375 158.878906 200.070312 C 160.59375 208.457031 160.378906 214.894531 158.246094 219.238281 C 161.632812 220.59375 165.097656 221.707031 168.640625 222.578125 C 168.933594 222.648438 169.171875 222.804688 169.355469 223.042969 C 169.542969 223.277344 169.632812 223.546875 169.632812 223.847656 L 169.632812 249.640625 C 169.632812 250.117188 169.683594 250.59375 169.777344 251.0625 C 169.871094 251.535156 170.007812 251.988281 170.191406 252.433594 C 170.375 252.875 170.601562 253.296875 170.867188 253.695312 C 171.136719 254.09375 171.4375 254.460938 171.777344 254.800781 C 172.117188 255.140625 172.488281 255.441406 172.886719 255.707031 C 173.285156 255.972656 173.707031 256.199219 174.148438 256.382812 C 174.59375 256.566406 175.046875 256.707031 175.519531 256.796875 C 175.988281 256.890625 176.464844 256.941406 176.945312 256.941406 L 198.148438 256.941406 C 198.628906 256.9375 199.105469 256.890625 199.574219 256.796875 C 200.046875 256.703125 200.503906 256.566406 200.945312 256.382812 C 201.386719 256.199219 201.808594 255.972656 202.207031 255.707031 C 202.605469 255.441406 202.976562 255.136719 203.316406 254.800781 C 203.65625 254.460938 203.957031 254.089844 204.222656 253.695312 C 204.492188 253.296875 204.714844 252.875 204.902344 252.433594 C 205.085938 251.988281 205.222656 251.535156 205.316406 251.0625 C 205.414062 250.59375 205.460938 250.117188 205.460938 249.640625 L 205.460938 223.863281 C 205.460938 223.5625 205.554688 223.292969 205.738281 223.054688 C 205.921875 222.820312 206.164062 222.664062 206.453125 222.589844 C 214.152344 220.699219 221.398438 217.707031 228.1875 213.613281 C 228.445312 213.457031 228.722656 213.398438 229.023438 213.433594 C 229.320312 213.472656 229.578125 213.597656 229.789062 213.808594 L 248.269531 232.273438 C 248.609375 232.609375 248.976562 232.910156 249.375 233.179688 C 249.773438 233.445312 250.195312 233.667969 250.640625 233.851562 C 251.082031 234.035156 251.539062 234.171875 252.007812 234.265625 C 252.480469 234.359375 252.953125 234.40625 253.433594 234.40625 C 253.914062 234.40625 254.390625 234.359375 254.859375 234.265625 C 255.328125 234.171875 255.785156 234.035156 256.230469 233.851562 C 256.671875 233.667969 257.09375 233.445312 257.492188 233.179688 C 257.890625 232.910156 258.261719 232.609375 258.601562 232.273438 L 273.601562 217.296875 C 273.941406 216.960938 274.242188 216.589844 274.507812 216.191406 C 274.777344 215.792969 275 215.371094 275.183594 214.929688 C 275.367188 214.484375 275.507812 214.027344 275.601562 213.558594 C 275.695312 213.089844 275.742188 212.613281 275.742188 212.132812 C 275.742188 211.65625 275.695312 211.179688 275.601562 210.710938 C 275.507812 210.238281 275.367188 209.78125 275.183594 209.339844 C 275 208.894531 274.777344 208.476562 274.507812 208.078125 C 274.242188 207.679688 273.941406 207.308594 273.601562 206.96875 L 255.191406 188.578125 C 254.976562 188.363281 254.851562 188.105469 254.816406 187.808594 C 254.78125 187.507812 254.839844 187.226562 254.996094 186.96875 C 259.195312 180.09375 262.253906 172.742188 264.183594 164.917969 C 264.253906 164.628906 264.410156 164.390625 264.648438 164.203125 C 264.882812 164.019531 265.152344 163.925781 265.453125 163.925781 L 291.523438 163.925781 C 292.003906 163.925781 292.476562 163.878906 292.949219 163.785156 C 293.417969 163.691406 293.875 163.550781 294.316406 163.367188 C 294.761719 163.183594 295.183594 162.957031 295.582031 162.691406 C 295.980469 162.425781 296.347656 162.121094 296.6875 161.785156 C 297.027344 161.445312 297.328125 161.074219 297.59375 160.675781 C 297.863281 160.277344 298.085938 159.859375 298.269531 159.414062 C 298.453125 158.972656 298.59375 158.515625 298.6875 158.046875 C 298.78125 157.578125 298.828125 157.101562 298.828125 156.621094 L 298.828125 135.425781 C 298.828125 134.945312 298.78125 134.472656 298.6875 134 C 298.59375 133.53125 298.457031 133.074219 298.273438 132.632812 C 298.089844 132.1875 297.863281 131.769531 297.597656 131.371094 C 297.332031 130.972656 297.027344 130.601562 296.6875 130.261719 C 296.347656 129.921875 295.980469 129.621094 295.582031 129.355469 C 295.183594 129.085938 294.761719 128.863281 294.320312 128.679688 C 293.875 128.496094 293.417969 128.355469 292.949219 128.261719 C 292.476562 128.167969 292.003906 128.121094 291.523438 128.121094 Z M 291.523438 128.121094 " fill-opacity="1" fill-rule="nonzero"/><path fill="#f1f2f2" d="M 299.617188 132.457031 L 298.21875 132.457031 C 297.929688 131.8125 297.558594 131.21875 297.097656 130.679688 C 296.636719 130.140625 296.109375 129.679688 295.515625 129.296875 C 294.921875 128.910156 294.285156 128.617188 293.605469 128.417969 C 292.925781 128.21875 292.230469 128.117188 291.523438 128.121094 L 265.453125 128.121094 C 265.152344 128.121094 264.882812 128.027344 264.644531 127.839844 C 264.40625 127.652344 264.253906 127.414062 264.183594 127.117188 C 262.316406 119.535156 259.378906 112.390625 255.375 105.6875 C 255.21875 105.429688 255.160156 105.152344 255.199219 104.851562 C 255.234375 104.554688 255.359375 104.300781 255.570312 104.085938 L 273.9375 85.734375 C 274.621094 85.074219 275.160156 84.308594 275.558594 83.445312 C 275.957031 82.578125 276.183594 81.671875 276.238281 80.722656 C 276.289062 79.699219 276.125 78.710938 275.753906 77.753906 C 275.382812 76.800781 274.835938 75.960938 274.109375 75.238281 L 259.109375 60.269531 C 258.769531 59.929688 258.398438 59.628906 258 59.363281 C 257.601562 59.097656 257.179688 58.875 256.738281 58.691406 C 256.292969 58.507812 255.839844 58.367188 255.367188 58.277344 C 254.898438 58.183594 254.421875 58.136719 253.941406 58.136719 C 253.464844 58.136719 252.988281 58.183594 252.519531 58.277344 C 252.046875 58.367188 251.589844 58.507812 251.148438 58.691406 C 250.703125 58.875 250.285156 59.097656 249.882812 59.363281 C 249.484375 59.628906 249.117188 59.929688 248.777344 60.269531 L 230.441406 78.601562 C 230.230469 78.816406 229.972656 78.9375 229.671875 78.972656 C 229.371094 79.007812 229.09375 78.945312 228.835938 78.789062 C 221.867188 74.511719 214.417969 71.394531 206.476562 69.441406 C 206.183594 69.371094 205.941406 69.21875 205.757812 68.980469 C 205.570312 68.742188 205.476562 68.472656 205.476562 68.171875 L 205.476562 42.128906 C 205.472656 41.523438 205.398438 40.925781 205.25 40.335938 C 205.097656 39.746094 204.878906 39.1875 204.585938 38.652344 C 204.296875 38.121094 203.945312 37.632812 203.535156 37.183594 C 203.121094 36.738281 202.660156 36.351562 202.152344 36.019531 L 202.152344 33.515625 L 174.285156 33.515625 C 173.996094 33.515625 173.710938 33.542969 173.425781 33.601562 C 173.140625 33.65625 172.863281 33.742188 172.597656 33.851562 C 172.328125 33.960938 172.074219 34.097656 171.832031 34.261719 C 171.59375 34.421875 171.371094 34.605469 171.164062 34.8125 C 170.960938 35.015625 170.777344 35.238281 170.617188 35.480469 C 170.457031 35.722656 170.320312 35.976562 170.210938 36.246094 C 170.101562 36.511719 170.019531 36.789062 169.960938 37.074219 C 169.90625 37.359375 169.878906 37.644531 169.882812 37.9375 L 169.882812 40.308594 C 169.71875 40.910156 169.636719 41.519531 169.632812 42.144531 L 169.632812 68.171875 C 169.632812 68.472656 169.539062 68.742188 169.351562 68.980469 C 169.164062 69.21875 168.925781 69.371094 168.632812 69.441406 C 161.09375 71.292969 153.992188 74.199219 147.320312 78.160156 C 147.0625 78.3125 146.785156 78.371094 146.488281 78.332031 C 146.191406 78.296875 145.933594 78.171875 145.722656 77.960938 L 127.339844 59.589844 C 126.675781 58.90625 125.914062 58.367188 125.046875 57.96875 C 124.179688 57.570312 123.273438 57.34375 122.324219 57.289062 C 121.296875 57.238281 120.308594 57.402344 119.351562 57.773438 C 118.394531 58.144531 117.558594 58.695312 116.835938 59.421875 L 101.839844 74.40625 C 101.398438 74.84375 101.023438 75.328125 100.707031 75.863281 C 100.390625 76.398438 100.148438 76.964844 99.980469 77.5625 C 99.808594 78.160156 99.714844 78.765625 99.699219 79.386719 C 99.6875 80.007812 99.75 80.621094 99.890625 81.226562 L 117.078125 64.0625 C 117.378906 63.757812 117.710938 63.488281 118.066406 63.25 C 118.421875 63.011719 118.800781 62.808594 119.195312 62.644531 C 119.59375 62.480469 120 62.355469 120.421875 62.273438 C 120.84375 62.1875 121.269531 62.148438 121.699219 62.148438 C 122.125 62.148438 122.550781 62.1875 122.972656 62.273438 C 123.394531 62.355469 123.800781 62.480469 124.199219 62.644531 C 124.59375 62.808594 124.972656 63.011719 125.328125 63.25 C 125.683594 63.488281 126.015625 63.757812 126.316406 64.0625 L 146.011719 83.746094 C 146.011719 83.746094 156.808594 75.070312 174.074219 70.796875 L 174.074219 47.160156 C 174.074219 46.746094 174.113281 46.339844 174.195312 45.933594 C 174.273438 45.53125 174.394531 45.136719 174.550781 44.753906 C 174.710938 44.375 174.902344 44.011719 175.132812 43.667969 C 175.363281 43.324219 175.621094 43.007812 175.914062 42.714844 C 176.207031 42.425781 176.523438 42.164062 176.867188 41.933594 C 177.210938 41.707031 177.574219 41.511719 177.957031 41.355469 C 178.335938 41.195312 178.730469 41.078125 179.136719 40.996094 C 179.539062 40.914062 179.949219 40.875 180.363281 40.875 L 195.90625 40.875 C 196.234375 40.875 196.558594 40.90625 196.878906 40.972656 C 197.203125 41.035156 197.511719 41.128906 197.816406 41.253906 C 198.117188 41.378906 198.40625 41.53125 198.679688 41.714844 C 198.949219 41.894531 199.203125 42.101562 199.433594 42.332031 C 199.664062 42.566406 199.871094 42.816406 200.054688 43.089844 C 200.234375 43.359375 200.390625 43.648438 200.515625 43.949219 C 200.640625 44.25 200.734375 44.5625 200.800781 44.882812 C 200.863281 45.203125 200.894531 45.527344 200.894531 45.855469 L 200.894531 71.441406 C 200.894531 71.441406 250.660156 80.757812 261.210938 132.472656 L 288.722656 132.472656 C 289.082031 132.472656 289.441406 132.507812 289.796875 132.578125 C 290.152344 132.648438 290.5 132.753906 290.835938 132.890625 C 291.167969 133.03125 291.488281 133.199219 291.789062 133.402344 C 292.089844 133.601562 292.371094 133.832031 292.625 134.085938 C 292.882812 134.34375 293.113281 134.621094 293.3125 134.921875 C 293.515625 135.222656 293.683594 135.542969 293.824219 135.875 C 293.964844 136.210938 294.066406 136.554688 294.140625 136.910156 C 294.210938 137.265625 294.246094 137.625 294.246094 137.988281 L 294.246094 163.394531 L 298.824219 161.1875 L 300.136719 145.894531 Z M 299.617188 132.457031 " fill-opacity="1" fill-rule="nonzero"/><path fill="#a7a9ac" d="M 137.21875 202.054688 C 119.007812 184.757812 114.226562 161.175781 114.226562 161.175781 L 85.578125 161.175781 C 85.28125 161.175781 84.988281 161.144531 84.695312 161.085938 C 84.40625 161.03125 84.125 160.945312 83.847656 160.832031 C 83.574219 160.71875 83.316406 160.578125 83.070312 160.414062 C 82.824219 160.25 82.59375 160.0625 82.386719 159.851562 C 82.175781 159.644531 81.988281 159.417969 81.824219 159.171875 C 81.660156 158.921875 81.519531 158.664062 81.40625 158.390625 C 81.292969 158.117188 81.207031 157.835938 81.148438 157.542969 C 81.09375 157.253906 81.0625 156.960938 81.0625 156.664062 L 81.0625 128.570312 L 76.257812 129.9375 L 75.03125 155.335938 L 76.257812 163.023438 L 80.097656 163.023438 C 81.179688 163.617188 82.335938 163.917969 83.570312 163.917969 L 109.636719 163.917969 C 109.9375 163.917969 110.207031 164.011719 110.445312 164.199219 C 110.683594 164.386719 110.835938 164.625 110.910156 164.917969 C 112.898438 173.015625 116.105469 180.597656 120.523438 187.667969 C 120.683594 187.925781 120.75 188.207031 120.714844 188.511719 C 120.679688 188.8125 120.554688 189.074219 120.339844 189.289062 L 102.074219 207.542969 C 101.734375 207.882812 101.433594 208.25 101.164062 208.648438 C 100.898438 209.050781 100.675781 209.46875 100.492188 209.914062 C 100.308594 210.355469 100.171875 210.8125 100.078125 211.28125 C 99.984375 211.753906 99.9375 212.226562 99.9375 212.707031 C 99.9375 213.1875 99.984375 213.660156 100.078125 214.132812 C 100.171875 214.601562 100.308594 215.058594 100.492188 215.5 C 100.675781 215.945312 100.898438 216.363281 101.164062 216.765625 C 101.433594 217.164062 101.734375 217.53125 102.074219 217.871094 L 116.898438 232.671875 C 117.5625 233.359375 118.324219 233.90625 119.191406 234.304688 C 120.054688 234.707031 120.964844 234.941406 121.917969 235 C 122.941406 235.046875 123.929688 234.878906 124.886719 234.507812 C 125.839844 234.132812 126.679688 233.582031 127.398438 232.855469 L 139.714844 220.558594 C 139.777344 220.5 139.84375 220.445312 139.914062 220.394531 C 137.019531 216.0625 136.550781 209.234375 137.21875 202.054688 Z M 137.21875 202.054688 " fill-opacity="1" fill-rule="nonzero"/><path fill="#a7a9ac" d="M 274.59375 207.953125 L 255.941406 226.589844 C 255.746094 226.785156 255.53125 226.964844 255.296875 227.121094 C 255.0625 227.277344 254.820312 227.410156 254.5625 227.519531 C 254.300781 227.628906 254.035156 227.710938 253.761719 227.769531 C 253.488281 227.824219 253.210938 227.855469 252.929688 227.859375 C 252.648438 227.863281 252.371094 227.839844 252.09375 227.792969 C 251.820312 227.742188 251.550781 227.664062 251.289062 227.5625 C 251.027344 227.460938 250.777344 227.335938 250.542969 227.1875 C 250.304688 227.035156 250.085938 226.863281 249.882812 226.671875 L 231.554688 209.347656 C 199.960938 222.261719 176.59375 222.09375 159.417969 215.867188 C 159.15625 217.042969 158.765625 218.175781 158.242188 219.265625 C 161.625 220.617188 165.085938 221.730469 168.625 222.605469 C 168.921875 222.675781 169.160156 222.828125 169.347656 223.066406 C 169.535156 223.304688 169.628906 223.574219 169.628906 223.875 L 169.628906 249.667969 C 169.628906 250.148438 169.675781 250.621094 169.769531 251.09375 C 169.863281 251.5625 170.003906 252.019531 170.1875 252.460938 C 170.371094 252.90625 170.59375 253.324219 170.863281 253.726562 C 171.128906 254.125 171.429688 254.492188 171.769531 254.832031 C 172.109375 255.171875 172.480469 255.472656 172.878906 255.738281 C 173.277344 256.003906 173.699219 256.230469 174.144531 256.414062 C 174.585938 256.597656 175.042969 256.734375 175.515625 256.828125 C 175.984375 256.921875 176.460938 256.96875 176.941406 256.96875 L 198.144531 256.96875 C 198.625 256.96875 199.101562 256.921875 199.570312 256.828125 C 200.042969 256.734375 200.5 256.597656 200.941406 256.414062 C 201.386719 256.230469 201.808594 256.003906 202.207031 255.738281 C 202.605469 255.472656 202.976562 255.171875 203.316406 254.832031 C 203.65625 254.492188 203.957031 254.125 204.222656 253.726562 C 204.492188 253.324219 204.714844 252.90625 204.898438 252.460938 C 205.082031 252.019531 205.222656 251.5625 205.316406 251.09375 C 205.410156 250.621094 205.457031 250.148438 205.457031 249.667969 L 205.457031 223.863281 C 205.457031 223.558594 205.550781 223.289062 205.738281 223.054688 C 205.925781 222.816406 206.164062 222.660156 206.457031 222.589844 C 214.15625 220.699219 221.394531 217.703125 228.183594 213.613281 C 228.441406 213.457031 228.71875 213.398438 229.019531 213.433594 C 229.316406 213.472656 229.574219 213.597656 229.785156 213.808594 L 248.265625 232.273438 C 248.730469 232.734375 249.246094 233.128906 249.820312 233.453125 C 250.390625 233.777344 250.996094 234.019531 251.632812 234.179688 C 252.269531 234.339844 252.917969 234.414062 253.574219 234.398438 C 254.230469 234.386719 254.875 234.285156 255.503906 234.097656 L 260.460938 233.136719 L 276.855469 214.652344 Z M 274.59375 207.953125 " fill-opacity="1" fill-rule="nonzero"/><path fill="#ffffff" d="M 211.292969 152.351562 C 211.902344 152.453125 212.492188 152.382812 213.0625 152.144531 C 213.453125 151.921875 213.75 151.613281 213.957031 151.214844 C 214.257812 150.574219 214.390625 149.90625 214.351562 149.199219 C 214.316406 148.496094 214.113281 147.84375 213.746094 147.238281 C 212.992188 146.039062 211.980469 145.117188 210.710938 144.476562 C 209.558594 143.84375 208.214844 143.378906 206.9375 143.691406 C 204.722656 144.234375 199.585938 146.835938 201.203125 149.746094 C 202.015625 151.203125 203.574219 151.269531 205.046875 151.464844 C 207.128906 151.722656 209.191406 152.164062 211.292969 152.351562 Z M 211.292969 152.351562 " fill-opacity="1" fill-rule="nonzero"/><path fill="#ffffff" d="M 175.425781 138.308594 C 174.890625 137.996094 174.484375 137.5625 174.207031 137.007812 C 174.054688 136.582031 174.03125 136.148438 174.136719 135.710938 C 174.320312 135.027344 174.652344 134.429688 175.136719 133.914062 C 175.621094 133.402344 176.199219 133.035156 176.871094 132.8125 C 178.226562 132.378906 179.59375 132.328125 180.976562 132.667969 C 182.265625 132.929688 183.59375 133.441406 184.363281 134.503906 C 185.695312 136.367188 187.933594 141.652344 184.828125 142.824219 C 183.265625 143.410156 182.03125 142.449219 180.785156 141.652344 C 179 140.523438 177.140625 139.523438 175.425781 138.308594 Z M 175.425781 138.308594 " fill-opacity="1" fill-rule="nonzero"/><path fill="#ffffff" d="M 188.050781 158.453125 C 173.238281 153.96875 152.242188 162.6875 144.554688 166.292969 C 145.335938 167.5 146.175781 168.6875 147.089844 169.847656 C 151.632812 175.585938 157.125 180.191406 163.566406 183.667969 L 163.679688 183.730469 C 169.023438 186.617188 174.679688 188.636719 180.648438 189.789062 C 185.417969 190.738281 190.234375 191.078125 195.089844 190.8125 C 199.949219 190.542969 204.699219 189.675781 209.335938 188.210938 C 209.53125 188.082031 209.75 188.011719 209.984375 188 C 210.804688 187.722656 211.609375 187.425781 212.410156 187.113281 C 205.199219 173.78125 196.359375 160.972656 188.050781 158.453125 Z M 188.050781 158.453125 " fill-opacity="1" fill-rule="nonzero"/><path fill="#e29127" d="M 233.707031 102.257812 L 225.960938 112.621094 L 236.503906 124.804688 C 239.871094 111.199219 233.707031 102.257812 233.707031 102.257812 Z M 233.707031 102.257812 " fill-opacity="1" fill-rule="nonzero"/><path fill="#e29127" d="M 172.460938 99.871094 L 171.140625 88.773438 C 171.140625 88.773438 162.113281 93.324219 159.085938 104.949219 Z M 172.460938 99.871094 " fill-opacity="1" fill-rule="nonzero"/><path fill="#f94141" d="M 216.929688 170.644531 C 217.316406 170.863281 217.6875 171.101562 218.050781 171.347656 C 218.410156 171.597656 218.75 171.859375 219.070312 172.125 C 219.390625 172.394531 219.6875 172.664062 219.953125 172.941406 C 220.222656 173.214844 220.460938 173.488281 220.667969 173.761719 C 220.875 174.035156 221.046875 174.300781 221.179688 174.5625 C 221.316406 174.820312 221.414062 175.066406 221.476562 175.304688 C 221.539062 175.539062 221.558594 175.761719 221.542969 175.964844 C 221.523438 176.167969 221.46875 176.351562 221.375 176.515625 C 221.28125 176.679688 221.148438 176.820312 220.980469 176.9375 C 220.8125 177.058594 220.613281 177.148438 220.378906 177.214844 C 220.140625 177.28125 219.878906 177.320312 219.585938 177.335938 C 219.292969 177.347656 218.976562 177.335938 218.636719 177.292969 C 218.296875 177.253906 217.941406 177.183594 217.566406 177.09375 C 217.191406 177 216.808594 176.878906 216.417969 176.738281 C 216.023438 176.597656 215.628906 176.433594 215.230469 176.246094 C 214.835938 176.0625 214.441406 175.859375 214.058594 175.636719 C 213.671875 175.414062 213.296875 175.179688 212.9375 174.929688 C 212.578125 174.679688 212.234375 174.421875 211.914062 174.152344 C 211.59375 173.886719 211.300781 173.613281 211.03125 173.339844 C 210.761719 173.0625 210.523438 172.789062 210.316406 172.515625 C 210.113281 172.242188 209.941406 171.976562 209.804688 171.71875 C 209.667969 171.457031 209.570312 171.210938 209.507812 170.972656 C 209.449219 170.738281 209.425781 170.519531 209.445312 170.3125 C 209.460938 170.109375 209.515625 169.925781 209.609375 169.761719 C 209.707031 169.597656 209.835938 169.457031 210.003906 169.339844 C 210.171875 169.222656 210.375 169.128906 210.609375 169.0625 C 210.84375 168.996094 211.105469 168.957031 211.398438 168.945312 C 211.691406 168.929688 212.007812 168.945312 212.347656 168.984375 C 212.6875 169.027344 213.046875 169.09375 213.417969 169.1875 C 213.792969 169.28125 214.175781 169.398438 214.570312 169.539062 C 214.960938 169.683594 215.355469 169.847656 215.753906 170.03125 C 216.152344 170.21875 216.542969 170.421875 216.929688 170.644531 Z M 216.929688 170.644531 " fill-opacity="1" fill-rule="nonzero"/><path fill="#f94141" d="M 157.882812 150.101562 C 158.292969 150.273438 158.691406 150.457031 159.082031 150.660156 C 159.46875 150.859375 159.839844 151.070312 160.1875 151.296875 C 160.539062 151.519531 160.867188 151.75 161.167969 151.988281 C 161.46875 152.226562 161.738281 152.464844 161.976562 152.710938 C 162.214844 152.953125 162.417969 153.195312 162.585938 153.433594 C 162.753906 153.671875 162.882812 153.90625 162.972656 154.128906 C 163.0625 154.355469 163.113281 154.570312 163.121094 154.773438 C 163.132812 154.980469 163.101562 155.167969 163.027344 155.339844 C 162.957031 155.515625 162.84375 155.671875 162.695312 155.808594 C 162.542969 155.945312 162.355469 156.0625 162.132812 156.160156 C 161.90625 156.253906 161.652344 156.328125 161.363281 156.378906 C 161.078125 156.429688 160.761719 156.457031 160.421875 156.457031 C 160.082031 156.460938 159.71875 156.441406 159.339844 156.394531 C 158.957031 156.351562 158.5625 156.285156 158.15625 156.195312 C 157.75 156.101562 157.339844 155.992188 156.921875 155.859375 C 156.507812 155.726562 156.09375 155.574219 155.683594 155.40625 C 155.273438 155.234375 154.875 155.050781 154.484375 154.851562 C 154.097656 154.648438 153.726562 154.4375 153.375 154.214844 C 153.027344 153.988281 152.699219 153.757812 152.398438 153.519531 C 152.097656 153.28125 151.828125 153.042969 151.589844 152.800781 C 151.351562 152.554688 151.148438 152.316406 150.980469 152.074219 C 150.8125 151.835938 150.683594 151.605469 150.59375 151.378906 C 150.503906 151.152344 150.453125 150.9375 150.441406 150.734375 C 150.433594 150.53125 150.464844 150.339844 150.539062 150.167969 C 150.609375 149.992188 150.722656 149.835938 150.871094 149.699219 C 151.023438 149.5625 151.210938 149.445312 151.433594 149.347656 C 151.65625 149.253906 151.914062 149.179688 152.203125 149.128906 C 152.488281 149.078125 152.804688 149.054688 153.144531 149.050781 C 153.484375 149.046875 153.847656 149.066406 154.226562 149.113281 C 154.609375 149.15625 155.003906 149.226562 155.410156 149.316406 C 155.816406 149.40625 156.226562 149.515625 156.644531 149.648438 C 157.058594 149.78125 157.472656 149.933594 157.882812 150.101562 Z M 157.882812 150.101562 " fill-opacity="1" fill-rule="nonzero"/><path fill="#d1d3d4" d="M 231.757812 85.765625 L 249.558594 67.285156 C 249.835938 67 250.136719 66.746094 250.464844 66.519531 C 250.789062 66.292969 251.136719 66.101562 251.5 65.945312 C 251.867188 65.785156 252.242188 65.667969 252.632812 65.585938 C 253.019531 65.503906 253.414062 65.460938 253.8125 65.457031 C 254.210938 65.453125 254.601562 65.488281 254.992188 65.5625 C 255.382812 65.636719 255.761719 65.75 256.128906 65.902344 C 256.5 66.050781 256.847656 66.234375 257.179688 66.457031 C 257.511719 66.675781 257.816406 66.925781 258.097656 67.207031 L 267.519531 76.625 C 267.796875 76.90625 268.046875 77.207031 268.265625 77.53125 C 268.480469 77.859375 268.664062 78.203125 268.816406 78.566406 C 268.964844 78.929688 269.078125 79.300781 269.15625 79.6875 C 269.234375 80.070312 269.269531 80.460938 269.269531 80.851562 C 269.269531 81.246094 269.234375 81.632812 269.15625 82.019531 C 269.078125 82.402344 268.964844 82.777344 268.816406 83.140625 C 268.664062 83.5 268.480469 83.847656 268.265625 84.171875 C 268.046875 84.5 267.796875 84.800781 267.519531 85.078125 L 249.253906 103.335938 Z M 231.757812 85.765625 " fill-opacity="1" fill-rule="nonzero"/><path fill="#d1d3d4" d="M 182.953125 212.96875 L 191.351562 212.96875 C 191.953125 212.96875 192.550781 213.027344 193.144531 213.148438 C 193.734375 213.265625 194.308594 213.4375 194.867188 213.667969 C 195.421875 213.898438 195.953125 214.179688 196.453125 214.515625 C 196.953125 214.851562 197.417969 215.230469 197.84375 215.65625 C 198.269531 216.082031 198.652344 216.546875 198.984375 217.046875 C 199.320312 217.546875 199.601562 218.078125 199.832031 218.632812 C 200.066406 219.191406 200.238281 219.761719 200.355469 220.355469 C 200.472656 220.945312 200.53125 221.542969 200.53125 222.144531 L 200.53125 244.277344 C 200.53125 244.878906 200.472656 245.476562 200.355469 246.066406 C 200.238281 246.65625 200.066406 247.230469 199.832031 247.789062 C 199.601562 248.34375 199.320312 248.871094 198.984375 249.375 C 198.652344 249.875 198.269531 250.335938 197.84375 250.761719 C 197.417969 251.191406 196.953125 251.570312 196.453125 251.90625 C 195.953125 252.238281 195.421875 252.523438 194.867188 252.753906 C 194.308594 252.984375 193.734375 253.15625 193.144531 253.273438 C 192.550781 253.390625 191.953125 253.449219 191.351562 253.449219 L 182.953125 253.449219 C 182.351562 253.449219 181.753906 253.390625 181.164062 253.273438 C 180.574219 253.15625 180 252.984375 179.441406 252.753906 C 178.882812 252.523438 178.355469 252.238281 177.855469 251.90625 C 177.351562 251.570312 176.890625 251.191406 176.464844 250.761719 C 176.035156 250.335938 175.65625 249.875 175.320312 249.375 C 174.988281 248.871094 174.703125 248.34375 174.472656 247.789062 C 174.242188 247.230469 174.066406 246.65625 173.949219 246.066406 C 173.832031 245.476562 173.773438 244.878906 173.773438 244.277344 L 173.773438 222.144531 C 173.773438 221.542969 173.832031 220.945312 173.949219 220.355469 C 174.066406 219.761719 174.242188 219.191406 174.472656 218.632812 C 174.703125 218.078125 174.988281 217.546875 175.320312 217.046875 C 175.65625 216.546875 176.035156 216.082031 176.464844 215.65625 C 176.890625 215.230469 177.351562 214.851562 177.855469 214.515625 C 178.355469 214.179688 178.882812 213.898438 179.441406 213.667969 C 180 213.4375 180.574219 213.265625 181.164062 213.148438 C 181.753906 213.027344 182.351562 212.96875 182.953125 212.96875 Z M 182.953125 212.96875 " fill-opacity="1" fill-rule="nonzero"/><path fill="#d1d3d4" d="M 137.816406 215.457031 C 136.152344 208.902344 137.117188 199.980469 138.777344 191.917969 L 135.019531 188.164062 C 134.765625 187.910156 134.488281 187.683594 134.191406 187.484375 C 133.890625 187.285156 133.578125 187.117188 133.246094 186.980469 C 132.914062 186.84375 132.574219 186.742188 132.222656 186.671875 C 131.871094 186.601562 131.515625 186.566406 131.15625 186.566406 C 130.796875 186.566406 130.441406 186.601562 130.089844 186.671875 C 129.738281 186.742188 129.398438 186.84375 129.066406 186.980469 C 128.734375 187.117188 128.417969 187.285156 128.121094 187.484375 C 127.824219 187.683594 127.546875 187.910156 127.292969 188.164062 L 106.371094 209.066406 C 106.117188 209.320312 105.890625 209.59375 105.691406 209.894531 C 105.492188 210.191406 105.324219 210.507812 105.1875 210.839844 C 105.046875 211.167969 104.945312 211.511719 104.875 211.863281 C 104.804688 212.214844 104.769531 212.570312 104.769531 212.929688 C 104.769531 213.285156 104.804688 213.640625 104.875 213.992188 C 104.945312 214.347656 105.046875 214.6875 105.1875 215.019531 C 105.324219 215.351562 105.492188 215.664062 105.691406 215.964844 C 105.890625 216.261719 106.117188 216.535156 106.371094 216.789062 L 117.5625 227.972656 C 117.816406 228.226562 118.089844 228.453125 118.390625 228.652344 C 118.6875 228.851562 119.003906 229.019531 119.335938 229.15625 C 119.664062 229.292969 120.007812 229.398438 120.359375 229.464844 C 120.710938 229.535156 121.066406 229.570312 121.425781 229.570312 C 121.785156 229.570312 122.140625 229.535156 122.492188 229.464844 C 122.84375 229.398438 123.183594 229.292969 123.515625 229.15625 C 123.847656 229.019531 124.160156 228.851562 124.460938 228.652344 C 124.757812 228.453125 125.035156 228.226562 125.289062 227.972656 Z M 137.816406 215.457031 " fill-opacity="1" fill-rule="nonzero"/><path fill="#a7a9ac" d="M 208.996094 194.46875 C 208.878906 193.164062 208.816406 192 208.789062 191.097656 C 203.328125 192.703125 197.746094 193.5 192.050781 193.496094 C 187.035156 193.488281 182.085938 192.890625 177.214844 191.699219 C 172.339844 190.503906 167.675781 188.753906 163.222656 186.441406 C 161.816406 187.808594 160.714844 189.386719 159.90625 191.171875 C 163.910156 193.183594 168.09375 194.703125 172.460938 195.722656 C 186.980469 199.222656 199.105469 198.167969 208.996094 194.46875 Z M 208.996094 194.46875 " fill-opacity="1" fill-rule="nonzero"/><path fill="#a7a9ac" d="M 143.039062 175.964844 C 143.785156 173.660156 144.328125 172.167969 144.4375 171.890625 C 144.53125 171.640625 144.683594 171.4375 144.902344 171.285156 C 142.496094 168.246094 140.5 164.960938 138.910156 161.425781 C 137.324219 157.894531 136.195312 154.21875 135.527344 150.402344 C 135.96875 158.472656 137.875 167.753906 143.039062 175.964844 Z M 143.039062 175.964844 " fill-opacity="1" fill-rule="nonzero"/><path fill="#a7a9ac" d="M 226.941406 181.738281 C 227.015625 181.960938 227.132812 182.304688 227.261719 182.738281 C 229.78125 180.257812 232.046875 177.558594 234.0625 174.652344 C 231.945312 177.269531 229.570312 179.632812 226.941406 181.738281 Z M 226.941406 181.738281 " fill-opacity="1" fill-rule="nonzero"/><path fill="#e29127" d="M 144.609375 179.761719 C 144.609375 179.761719 153.855469 187.988281 157.609375 189.9375 C 161.363281 191.882812 161.855469 184.851562 161.855469 184.851562 L 147.449219 172.339844 Z M 144.609375 179.761719 " fill-opacity="1" fill-rule="nonzero"/><path fill="#e29127" d="M 211.570312 193.640625 C 211.570312 193.640625 222.894531 189.6875 226.164062 184.789062 L 224.796875 181.785156 C 224.796875 181.785156 214.878906 187.5625 214.367188 187.746094 C 213.855469 187.933594 210.078125 189.359375 210.078125 189.359375 Z M 211.570312 193.640625 " fill-opacity="1" fill-rule="nonzero"/><path fill="#ffe0b6" d="M 231.292969 121.929688 C 227.371094 116.964844 222.707031 112.839844 217.304688 109.550781 C 216.476562 108.476562 215.46875 107.609375 214.289062 106.941406 C 212.839844 106.0625 211.269531 105.609375 209.578125 105.585938 C 202.113281 102.460938 194.332031 100.890625 186.238281 100.886719 C 184.585938 100.886719 182.945312 100.960938 181.316406 101.097656 L 181.273438 101.097656 C 190.128906 101.484375 198.644531 103.398438 206.8125 106.839844 L 206.769531 106.898438 C 205.742188 108.679688 207.4375 111.558594 210.5625 113.382812 C 213.6875 115.210938 217.046875 115.203125 218.078125 113.421875 C 218.117188 113.351562 218.152344 113.277344 218.179688 113.203125 C 226.875 119.492188 234.5 129.042969 237.519531 143.558594 C 241.847656 164.371094 228.9375 177.816406 214.773438 186.101562 C 227.765625 180.269531 237.460938 169.457031 240.121094 155.773438 C 242.382812 144.09375 239.25 132.070312 231.292969 121.929688 Z M 231.292969 121.929688 " fill-opacity="1" fill-rule="nonzero"/><path fill="#ffe0b6" d="M 219.378906 117.292969 C 219.789062 117.53125 220.148438 117.828125 220.453125 118.183594 C 220.753906 118.535156 220.980469 118.921875 221.128906 119.339844 C 221.277344 119.761719 221.335938 120.175781 221.304688 120.59375 C 221.273438 121.011719 221.15625 121.398438 220.953125 121.75 C 220.75 122.105469 220.472656 122.398438 220.125 122.632812 C 219.78125 122.867188 219.386719 123.027344 218.953125 123.109375 C 218.515625 123.1875 218.066406 123.1875 217.609375 123.101562 C 217.148438 123.015625 216.714844 122.855469 216.300781 122.617188 C 215.886719 122.378906 215.53125 122.082031 215.226562 121.726562 C 214.921875 121.371094 214.695312 120.984375 214.550781 120.566406 C 214.402344 120.148438 214.34375 119.730469 214.375 119.316406 C 214.40625 118.898438 214.523438 118.511719 214.726562 118.160156 C 214.929688 117.804688 215.203125 117.511719 215.550781 117.277344 C 215.898438 117.042969 216.289062 116.882812 216.726562 116.800781 C 217.160156 116.71875 217.609375 116.722656 218.070312 116.808594 C 218.527344 116.890625 218.964844 117.054688 219.378906 117.292969 Z M 219.378906 117.292969 " fill-opacity="1" fill-rule="nonzero"/><path fill="#e29127" d="M 173.773438 187.710938 C 112.441406 152.207031 154.285156 111.40625 155.546875 110.199219 C 146.371094 116.585938 140.289062 125.613281 138.269531 135.992188 C 135.992188 147.683594 139.125 159.707031 147.089844 169.847656 C 151.632812 175.585938 157.125 180.191406 163.566406 183.667969 L 163.679688 183.730469 C 167.25 185.65625 170.980469 187.191406 174.871094 188.34375 Z M 173.773438 187.710938 " fill-opacity="1" fill-rule="nonzero"/><path fill="#e6e7e8" d="M 166.699219 185.242188 C 167.429688 185.582031 168.164062 185.910156 168.910156 186.21875 L 169.214844 186.351562 C 171.0625 187.109375 172.949219 187.773438 174.863281 188.34375 L 173.773438 187.710938 C 160.863281 180.257812 152.523438 172.527344 147.417969 165 C 146.332031 165.464844 145.363281 165.929688 144.554688 166.292969 C 144.941406 166.890625 145.339844 167.488281 145.761719 168.074219 C 146.179688 168.660156 146.625 169.261719 147.085938 169.84375 C 151.628906 175.582031 157.121094 180.1875 163.5625 183.660156 L 163.675781 183.726562 C 164.476562 184.160156 165.292969 184.570312 166.117188 184.964844 Z M 166.699219 185.242188 " fill-opacity="1" fill-rule="nonzero"/><path fill="#d1d3d4" d="M 298.273438 195.371094 C 299.769531 195.371094 299.777344 193.039062 298.273438 193.039062 C 296.773438 193.039062 296.769531 195.371094 298.273438 195.371094 Z M 298.273438 195.371094 " fill-opacity="1" fill-rule="nonzero"/><path fill="#ffe0b6" d="M 240.46875 132.691406 C 247.199219 114.203125 236.796875 96.21875 233.375 91.046875 L 220.824219 108.714844 L 233.074219 94.917969 C 233.074219 94.917969 243.714844 108.582031 240.46875 132.691406 Z M 240.46875 132.691406 " fill-opacity="1" fill-rule="nonzero"/><path fill="#ffe0b6" d="M 175.425781 80.984375 L 178.179688 98.808594 L 178.207031 98.808594 C 178.675781 98.742188 179.140625 98.667969 179.605469 98.613281 L 176.894531 77.722656 C 171.53125 80.628906 154.378906 91.3125 151.25 110.171875 C 155.839844 91.78125 175.425781 80.984375 175.425781 80.984375 Z M 175.425781 80.984375 " fill-opacity="1" fill-rule="nonzero"/><g clip-path="url(#4d82bb01a2)"><path fill="#231f20" d="M 291.523438 125.179688 L 266.726562 125.179688 C 264.886719 118.1875 262.160156 111.554688 258.542969 105.289062 L 276.1875 87.660156 C 276.664062 87.183594 277.089844 86.664062 277.460938 86.105469 C 277.835938 85.546875 278.152344 84.957031 278.40625 84.335938 C 278.664062 83.714844 278.859375 83.074219 278.992188 82.414062 C 279.121094 81.753906 279.1875 81.089844 279.1875 80.417969 C 279.1875 79.746094 279.121094 79.078125 278.992188 78.417969 C 278.859375 77.757812 278.664062 77.121094 278.40625 76.496094 C 278.152344 75.875 277.835938 75.285156 277.460938 74.726562 C 277.089844 74.167969 276.664062 73.652344 276.1875 73.175781 L 261.214844 58.1875 C 260.738281 57.710938 260.222656 57.289062 259.664062 56.914062 C 259.101562 56.539062 258.511719 56.226562 257.890625 55.96875 C 257.269531 55.710938 256.625 55.515625 255.964844 55.386719 C 255.304688 55.253906 254.640625 55.1875 253.964844 55.1875 C 253.292969 55.1875 252.625 55.253906 251.964844 55.386719 C 251.304688 55.515625 250.664062 55.710938 250.042969 55.96875 C 249.421875 56.226562 248.828125 56.539062 248.269531 56.914062 C 247.710938 57.289062 247.191406 57.710938 246.714844 58.1875 L 229.277344 75.617188 C 222.734375 71.738281 215.785156 68.832031 208.425781 66.898438 L 208.425781 42.128906 C 208.425781 41.457031 208.359375 40.789062 208.230469 40.128906 C 208.097656 39.46875 207.902344 38.828125 207.644531 38.207031 C 207.386719 37.585938 207.070312 36.992188 206.699219 36.433594 C 206.324219 35.875 205.898438 35.355469 205.421875 34.882812 C 204.945312 34.40625 204.425781 33.980469 203.867188 33.605469 C 203.308594 33.234375 202.714844 32.917969 202.09375 32.660156 C 201.472656 32.402344 200.832031 32.207031 200.171875 32.078125 C 199.507812 31.945312 198.84375 31.878906 198.167969 31.878906 L 176.945312 31.878906 C 176.269531 31.878906 175.605469 31.945312 174.945312 32.078125 C 174.28125 32.207031 173.640625 32.402344 173.019531 32.660156 C 172.398438 32.917969 171.804688 33.234375 171.246094 33.605469 C 170.6875 33.980469 170.167969 34.40625 169.691406 34.882812 C 169.214844 35.355469 168.789062 35.875 168.414062 36.433594 C 168.042969 36.992188 167.726562 37.585938 167.46875 38.207031 C 167.210938 38.828125 167.015625 39.46875 166.882812 40.128906 C 166.753906 40.789062 166.6875 41.457031 166.6875 42.128906 L 166.6875 66.898438 C 159.738281 68.726562 153.144531 71.421875 146.910156 74.988281 L 129.265625 57.339844 C 128.789062 56.863281 128.269531 56.441406 127.710938 56.066406 C 127.152344 55.691406 126.558594 55.378906 125.9375 55.121094 C 125.316406 54.863281 124.675781 54.667969 124.015625 54.539062 C 123.355469 54.40625 122.6875 54.339844 122.015625 54.339844 C 121.339844 54.339844 120.675781 54.40625 120.015625 54.539062 C 119.355469 54.667969 118.714844 54.863281 118.089844 55.121094 C 117.46875 55.378906 116.878906 55.691406 116.320312 56.066406 C 115.757812 56.441406 115.242188 56.863281 114.765625 57.339844 L 99.753906 72.320312 C 99.28125 72.796875 98.855469 73.316406 98.480469 73.875 C 98.105469 74.433594 97.792969 75.023438 97.535156 75.644531 C 97.277344 76.269531 97.082031 76.910156 96.949219 77.566406 C 96.820312 78.226562 96.753906 78.894531 96.753906 79.566406 C 96.753906 80.238281 96.820312 80.90625 96.949219 81.566406 C 97.082031 82.226562 97.277344 82.867188 97.535156 83.488281 C 97.792969 84.109375 98.105469 84.699219 98.480469 85.257812 C 98.855469 85.816406 99.28125 86.335938 99.753906 86.8125 L 117.171875 104.207031 C 113.25 110.78125 110.3125 117.769531 108.363281 125.171875 L 83.570312 125.171875 C 82.898438 125.171875 82.230469 125.238281 81.570312 125.367188 C 80.910156 125.5 80.269531 125.695312 79.644531 125.953125 C 79.023438 126.207031 78.433594 126.523438 77.871094 126.898438 C 77.3125 127.273438 76.792969 127.699219 76.316406 128.171875 C 75.84375 128.648438 75.417969 129.167969 75.042969 129.726562 C 74.667969 130.285156 74.351562 130.875 74.09375 131.5 C 73.835938 132.121094 73.640625 132.761719 73.511719 133.421875 C 73.378906 134.082031 73.3125 134.746094 73.3125 135.421875 L 73.3125 156.609375 C 73.3125 157.28125 73.378906 157.949219 73.511719 158.609375 C 73.640625 159.269531 73.835938 159.910156 74.09375 160.53125 C 74.351562 161.152344 74.667969 161.742188 75.042969 162.304688 C 75.417969 162.863281 75.84375 163.378906 76.316406 163.855469 C 76.792969 164.332031 77.3125 164.757812 77.871094 165.128906 C 78.433594 165.503906 79.023438 165.820312 79.644531 166.078125 C 80.269531 166.335938 80.910156 166.53125 81.570312 166.660156 C 82.230469 166.792969 82.898438 166.859375 83.570312 166.859375 L 108.363281 166.859375 C 110.339844 174.375 113.335938 181.464844 117.347656 188.125 L 99.992188 205.464844 C 99.519531 205.941406 99.09375 206.457031 98.71875 207.015625 C 98.347656 207.578125 98.03125 208.167969 97.773438 208.789062 C 97.515625 209.410156 97.320312 210.050781 97.191406 210.710938 C 97.058594 211.367188 96.996094 212.035156 96.996094 212.707031 C 96.996094 213.378906 97.058594 214.046875 97.191406 214.703125 C 97.320312 215.363281 97.515625 216.003906 97.773438 216.625 C 98.03125 217.246094 98.347656 217.835938 98.71875 218.398438 C 99.09375 218.957031 99.519531 219.472656 99.992188 219.949219 L 114.988281 234.933594 C 115.464844 235.40625 115.980469 235.832031 116.542969 236.203125 C 117.101562 236.578125 117.691406 236.894531 118.3125 237.148438 C 118.9375 237.40625 119.578125 237.601562 120.238281 237.730469 C 120.898438 237.863281 121.5625 237.929688 122.234375 237.929688 C 122.910156 237.929688 123.574219 237.863281 124.234375 237.730469 C 124.894531 237.601562 125.535156 237.40625 126.15625 237.148438 C 126.78125 236.894531 127.371094 236.578125 127.929688 236.203125 C 128.488281 235.832031 129.007812 235.40625 129.484375 234.933594 L 141.605469 222.820312 C 143.628906 224.578125 146.226562 225.484375 149.371094 225.507812 L 149.5 225.507812 C 150.917969 225.472656 152.265625 225.148438 153.546875 224.535156 C 154.824219 223.921875 155.921875 223.074219 156.839844 221.996094 L 156.929688 221.886719 L 156.960938 221.886719 C 160.136719 223.164062 163.378906 224.238281 166.691406 225.105469 L 166.691406 249.628906 C 166.691406 250.304688 166.757812 250.96875 166.890625 251.628906 C 167.019531 252.289062 167.214844 252.929688 167.472656 253.550781 C 167.730469 254.175781 168.046875 254.765625 168.421875 255.324219 C 168.792969 255.882812 169.21875 256.402344 169.695312 256.878906 C 170.171875 257.351562 170.691406 257.777344 171.25 258.152344 C 171.808594 258.527344 172.402344 258.839844 173.023438 259.097656 C 173.644531 259.355469 174.289062 259.550781 174.949219 259.683594 C 175.609375 259.8125 176.277344 259.878906 176.949219 259.878906 L 198.15625 259.878906 C 198.828125 259.878906 199.496094 259.8125 200.15625 259.683594 C 200.816406 259.550781 201.457031 259.355469 202.082031 259.097656 C 202.703125 258.839844 203.292969 258.527344 203.855469 258.152344 C 204.414062 257.777344 204.933594 257.351562 205.40625 256.878906 C 205.882812 256.402344 206.308594 255.882812 206.683594 255.324219 C 207.058594 254.765625 207.375 254.175781 207.632812 253.550781 C 207.890625 252.929688 208.085938 252.289062 208.214844 251.628906 C 208.347656 250.96875 208.414062 250.304688 208.414062 249.628906 L 208.414062 225.128906 C 215.523438 223.261719 222.257812 220.480469 228.617188 216.785156 L 246.195312 234.355469 C 246.667969 234.828125 247.1875 235.253906 247.746094 235.625 C 248.308594 236 248.898438 236.316406 249.519531 236.570312 C 250.140625 236.828125 250.78125 237.023438 251.441406 237.152344 C 252.101562 237.285156 252.769531 237.351562 253.441406 237.351562 C 254.113281 237.351562 254.78125 237.285156 255.441406 237.152344 C 256.101562 237.023438 256.742188 236.828125 257.363281 236.570312 C 257.984375 236.316406 258.574219 236 259.136719 235.625 C 259.695312 235.253906 260.214844 234.828125 260.691406 234.355469 L 275.671875 219.371094 C 276.144531 218.894531 276.570312 218.378906 276.945312 217.820312 C 277.320312 217.257812 277.632812 216.667969 277.890625 216.046875 C 278.148438 215.425781 278.34375 214.785156 278.476562 214.125 C 278.605469 213.464844 278.671875 212.800781 278.671875 212.128906 C 278.671875 211.453125 278.605469 210.789062 278.476562 210.128906 C 278.34375 209.46875 278.148438 208.828125 277.890625 208.207031 C 277.632812 207.585938 277.320312 206.996094 276.945312 206.433594 C 276.570312 205.875 276.144531 205.359375 275.671875 204.882812 L 258.175781 187.390625 C 261.96875 180.9375 264.820312 174.09375 266.722656 166.859375 L 291.523438 166.859375 C 292.195312 166.859375 292.863281 166.792969 293.523438 166.660156 C 294.183594 166.53125 294.828125 166.335938 295.449219 166.078125 C 296.070312 165.820312 296.660156 165.503906 297.222656 165.128906 C 297.78125 164.757812 298.300781 164.332031 298.777344 163.855469 C 299.253906 163.378906 299.679688 162.863281 300.050781 162.304688 C 300.425781 161.742188 300.742188 161.152344 301 160.53125 C 301.257812 159.910156 301.453125 159.269531 301.582031 158.609375 C 301.714844 157.949219 301.78125 157.28125 301.78125 156.609375 L 301.78125 135.425781 C 301.78125 134.753906 301.714844 134.085938 301.582031 133.425781 C 301.453125 132.765625 301.257812 132.125 301 131.503906 C 300.742188 130.882812 300.425781 130.292969 300.050781 129.734375 C 299.675781 129.175781 299.25 128.65625 298.773438 128.179688 C 298.296875 127.707031 297.78125 127.28125 297.21875 126.90625 C 296.660156 126.535156 296.070312 126.21875 295.449219 125.960938 C 294.824219 125.703125 294.183594 125.507812 293.523438 125.378906 C 292.863281 125.246094 292.195312 125.179688 291.523438 125.179688 Z M 153.003906 221.082031 C 152.214844 219.375 151.699219 217.589844 151.453125 215.722656 C 151.433594 215.515625 151.371094 215.316406 151.273438 215.128906 C 151.175781 214.945312 151.042969 214.78125 150.882812 214.648438 C 150.722656 214.511719 150.542969 214.410156 150.34375 214.34375 C 150.140625 214.277344 149.9375 214.25 149.726562 214.261719 C 149.515625 214.277344 149.316406 214.328125 149.125 214.417969 C 148.933594 214.507812 148.769531 214.632812 148.625 214.785156 C 148.480469 214.941406 148.371094 215.117188 148.296875 215.3125 C 148.222656 215.507812 148.1875 215.714844 148.191406 215.925781 C 148.191406 216.039062 148.363281 218.546875 149.933594 222.222656 C 149.679688 222.246094 149.515625 222.246094 149.46875 222.246094 L 149.390625 222.246094 C 148.707031 222.246094 148.03125 222.183594 147.359375 222.058594 C 146.046875 218.332031 146.101562 215.859375 146.101562 215.804688 C 146.109375 215.585938 146.078125 215.378906 146 215.175781 C 145.925781 214.972656 145.816406 214.789062 145.667969 214.632812 C 145.523438 214.472656 145.351562 214.347656 145.152344 214.257812 C 144.957031 214.167969 144.75 214.117188 144.535156 214.105469 C 144.320312 214.101562 144.109375 214.136719 143.90625 214.210938 C 143.703125 214.285156 143.523438 214.398438 143.363281 214.542969 C 143.207031 214.691406 143.082031 214.859375 142.988281 215.054688 C 142.894531 215.25 142.84375 215.457031 142.832031 215.671875 C 142.832031 217.140625 143.007812 218.589844 143.359375 220.015625 C 143.015625 219.664062 142.703125 219.285156 142.425781 218.878906 C 135.382812 208.730469 144.65625 180.210938 146.769531 174.078125 C 150.691406 178.5 155.199219 182.214844 160.289062 185.21875 C 159.351562 186.25 158.542969 187.375 157.867188 188.59375 C 157.1875 189.8125 156.664062 191.09375 156.285156 192.433594 C 155.910156 193.777344 155.695312 195.144531 155.640625 196.539062 C 155.582031 197.933594 155.691406 199.3125 155.957031 200.679688 C 158.289062 212.171875 156.398438 217.429688 154.378906 219.8125 C 153.976562 220.296875 153.515625 220.71875 153.003906 221.082031 Z M 159.304688 108.191406 C 166.066406 104.355469 173.320312 102.105469 181.066406 101.445312 C 181.144531 101.449219 181.222656 101.449219 181.300781 101.445312 L 181.363281 101.445312 C 182.972656 101.308594 184.589844 101.234375 186.222656 101.234375 C 190.074219 101.238281 193.890625 101.609375 197.667969 102.34375 C 211.230469 104.980469 223.078125 112.015625 231.035156 122.152344 C 238.996094 132.289062 242.042969 144.152344 239.785156 155.742188 C 236.835938 170.910156 225.179688 182.535156 209.945312 187.679688 C 209.667969 187.695312 209.410156 187.78125 209.175781 187.933594 C 204.570312 189.386719 199.855469 190.242188 195.035156 190.503906 C 190.210938 190.761719 185.433594 190.421875 180.699219 189.476562 C 174.777344 188.34375 169.167969 186.347656 163.863281 183.488281 C 163.796875 183.453125 163.734375 183.414062 163.664062 183.382812 C 157.285156 179.929688 151.84375 175.359375 147.347656 169.671875 C 139.445312 159.605469 136.332031 147.671875 138.589844 136.082031 C 140.847656 124.492188 148.203125 114.566406 159.304688 108.191406 Z M 151.691406 109.375 C 155.089844 91.636719 170.980469 81.375 176.632812 78.238281 L 179.246094 98.347656 C 171.574219 99.203125 164.382812 101.542969 157.675781 105.359375 C 155.585938 106.558594 153.59375 107.894531 151.691406 109.375 Z M 221.289062 108.625 L 233.363281 91.625 C 236.933594 97.144531 246.382812 114.140625 240.449219 131.75 C 238.707031 127.550781 236.425781 123.671875 233.609375 120.101562 C 230.089844 115.644531 225.984375 111.820312 221.289062 108.625 Z M 221.695312 199.679688 C 221.695312 199.707031 222.433594 202.21875 222.042969 206.34375 C 222.035156 206.414062 222.035156 206.484375 222.042969 206.554688 C 221.6875 206.78125 221.316406 206.976562 220.929688 207.140625 C 220.492188 207.34375 220.035156 207.5 219.5625 207.609375 C 219.886719 203.148438 219.070312 200.429688 219.035156 200.308594 C 218.964844 200.105469 218.859375 199.925781 218.722656 199.765625 C 218.582031 199.605469 218.417969 199.476562 218.230469 199.382812 C 218.039062 199.285156 217.839844 199.226562 217.628906 199.207031 C 217.417969 199.191406 217.210938 199.210938 217.007812 199.273438 C 216.804688 199.335938 216.621094 199.433594 216.457031 199.566406 C 216.289062 199.699219 216.15625 199.859375 216.054688 200.046875 C 215.949219 200.230469 215.886719 200.429688 215.859375 200.640625 C 215.835938 200.851562 215.851562 201.058594 215.90625 201.261719 C 216.335938 203.132812 216.476562 205.019531 216.324219 206.933594 C 212.777344 204.164062 211.835938 195.082031 211.730469 190.515625 C 216.304688 188.910156 220.578125 186.726562 224.554688 183.960938 C 225.609375 187.5 227.816406 196.539062 225.394531 202.457031 C 225.34375 201.191406 225.15625 199.949219 224.835938 198.726562 C 224.761719 198.535156 224.65625 198.363281 224.515625 198.210938 C 224.378906 198.054688 224.214844 197.933594 224.03125 197.84375 C 223.84375 197.75 223.648438 197.695312 223.441406 197.679688 C 223.238281 197.660156 223.035156 197.679688 222.835938 197.742188 C 222.636719 197.800781 222.457031 197.894531 222.292969 198.019531 C 222.132812 198.148438 221.996094 198.300781 221.894531 198.476562 C 221.789062 198.65625 221.71875 198.847656 221.6875 199.050781 C 221.65625 199.253906 221.660156 199.457031 221.707031 199.660156 Z M 298.515625 156.613281 C 298.515625 157.070312 298.472656 157.527344 298.382812 157.976562 C 298.292969 158.425781 298.160156 158.863281 297.984375 159.289062 C 297.808594 159.710938 297.59375 160.113281 297.339844 160.496094 C 297.082031 160.878906 296.792969 161.230469 296.46875 161.554688 C 296.144531 161.878906 295.789062 162.167969 295.410156 162.421875 C 295.027344 162.679688 294.625 162.894531 294.199219 163.070312 C 293.773438 163.246094 293.339844 163.378906 292.886719 163.46875 C 292.4375 163.554688 291.984375 163.601562 291.523438 163.601562 L 265.453125 163.601562 C 265.078125 163.601562 264.742188 163.71875 264.445312 163.949219 C 264.148438 164.183594 263.957031 164.480469 263.863281 164.84375 C 261.949219 172.636719 258.898438 179.957031 254.714844 186.808594 C 254.519531 187.128906 254.445312 187.476562 254.492188 187.851562 C 254.535156 188.222656 254.691406 188.542969 254.960938 188.808594 L 273.367188 207.207031 C 273.691406 207.53125 273.980469 207.882812 274.234375 208.265625 C 274.488281 208.644531 274.699219 209.046875 274.875 209.472656 C 275.050781 209.894531 275.183594 210.328125 275.273438 210.777344 C 275.359375 211.226562 275.40625 211.679688 275.40625 212.140625 C 275.40625 212.597656 275.359375 213.050781 275.273438 213.5 C 275.183594 213.949219 275.050781 214.382812 274.875 214.804688 C 274.699219 215.230469 274.488281 215.632812 274.234375 216.011719 C 273.980469 216.394531 273.691406 216.746094 273.367188 217.070312 L 258.367188 232.050781 C 258.042969 232.375 257.691406 232.664062 257.308594 232.917969 C 256.925781 233.171875 256.527344 233.386719 256.101562 233.558594 C 255.679688 233.734375 255.242188 233.867188 254.792969 233.957031 C 254.34375 234.042969 253.890625 234.089844 253.433594 234.089844 C 252.972656 234.089844 252.519531 234.042969 252.070312 233.957031 C 251.621094 233.867188 251.1875 233.734375 250.761719 233.558594 C 250.339844 233.386719 249.9375 233.171875 249.554688 232.917969 C 249.175781 232.664062 248.820312 232.375 248.496094 232.050781 L 230.019531 213.570312 C 229.753906 213.304688 229.433594 213.148438 229.0625 213.101562 C 228.6875 213.054688 228.339844 213.128906 228.019531 213.324219 C 221.257812 217.402344 214.042969 220.382812 206.375 222.265625 C 206.007812 222.355469 205.710938 222.550781 205.480469 222.84375 C 205.246094 223.140625 205.128906 223.476562 205.128906 223.851562 L 205.128906 249.644531 C 205.128906 250.101562 205.085938 250.558594 204.996094 251.007812 C 204.90625 251.457031 204.773438 251.894531 204.597656 252.320312 C 204.421875 252.742188 204.207031 253.144531 203.953125 253.527344 C 203.695312 253.90625 203.40625 254.261719 203.082031 254.585938 C 202.757812 254.910156 202.402344 255.199219 202.023438 255.453125 C 201.640625 255.710938 201.238281 255.925781 200.8125 256.101562 C 200.386719 256.277344 199.949219 256.410156 199.5 256.496094 C 199.050781 256.585938 198.59375 256.632812 198.136719 256.632812 L 176.945312 256.632812 C 176.484375 256.632812 176.03125 256.585938 175.582031 256.5 C 175.128906 256.410156 174.691406 256.277344 174.269531 256.101562 C 173.84375 255.925781 173.441406 255.710938 173.058594 255.453125 C 172.675781 255.199219 172.324219 254.910156 172 254.585938 C 171.675781 254.261719 171.382812 253.90625 171.128906 253.527344 C 170.875 253.144531 170.660156 252.742188 170.484375 252.320312 C 170.308594 251.894531 170.175781 251.457031 170.085938 251.007812 C 169.996094 250.558594 169.949219 250.101562 169.949219 249.644531 L 169.949219 223.863281 C 169.949219 223.484375 169.835938 223.148438 169.601562 222.851562 C 169.367188 222.554688 169.066406 222.363281 168.703125 222.273438 C 165.289062 221.433594 161.949219 220.367188 158.679688 219.078125 C 160.699219 214.675781 160.871094 208.289062 159.179688 200.019531 C 158.953125 198.839844 158.871094 197.648438 158.9375 196.449219 C 159.003906 195.246094 159.214844 194.074219 159.570312 192.925781 C 159.925781 191.777344 160.417969 190.6875 161.042969 189.660156 C 161.664062 188.632812 162.40625 187.695312 163.261719 186.847656 C 167.710938 189.136719 172.371094 190.871094 177.234375 192.050781 C 182.097656 193.230469 187.03125 193.828125 192.039062 193.835938 C 197.621094 193.84375 203.097656 193.082031 208.464844 191.550781 C 208.648438 196.253906 209.648438 206.457031 214.757812 209.859375 C 215.902344 210.617188 217.160156 210.992188 218.535156 210.984375 C 219.820312 210.964844 221.046875 210.691406 222.214844 210.15625 C 234.335938 204.898438 228.476562 185.371094 227.308594 181.863281 C 235.300781 175.398438 240.984375 166.632812 242.984375 156.355469 C 243.636719 153.007812 243.878906 149.628906 243.710938 146.21875 C 243.546875 142.8125 242.976562 139.472656 242 136.203125 C 242.21875 136.03125 242.382812 135.820312 242.492188 135.566406 C 252.648438 111.542969 235.417969 88.714844 234.679688 87.785156 C 234.355469 87.355469 233.921875 87.144531 233.386719 87.144531 L 233.351562 87.144531 C 232.800781 87.15625 232.367188 87.386719 232.050781 87.835938 L 218.53125 106.863281 C 212.242188 103.082031 205.496094 100.503906 198.289062 99.125 C 193.074219 98.101562 187.808594 97.75 182.503906 98.066406 L 179.574219 75.5 C 179.539062 75.246094 179.449219 75.011719 179.304688 74.796875 C 179.160156 74.585938 178.976562 74.417969 178.75 74.289062 C 178.527344 74.164062 178.285156 74.097656 178.027344 74.085938 C 177.769531 74.074219 177.523438 74.117188 177.289062 74.222656 C 176.175781 74.738281 150.246094 86.765625 147.914062 112.625 C 144.6875 115.6875 142.003906 119.167969 139.859375 123.0625 C 137.714844 126.960938 136.214844 131.089844 135.359375 135.453125 C 132.953125 147.828125 136.175781 160.523438 144.433594 171.261719 C 144.289062 171.417969 144.179688 171.597656 144.105469 171.796875 C 143.570312 173.253906 131.171875 207.296875 139.445312 220.339844 L 127.132812 232.640625 C 126.808594 232.960938 126.457031 233.25 126.074219 233.503906 C 125.695312 233.757812 125.292969 233.972656 124.867188 234.148438 C 124.445312 234.320312 124.007812 234.453125 123.558594 234.542969 C 123.109375 234.632812 122.65625 234.675781 122.199219 234.675781 C 121.742188 234.675781 121.289062 234.632812 120.839844 234.542969 C 120.386719 234.453125 119.953125 234.320312 119.527344 234.148438 C 119.105469 233.972656 118.703125 233.757812 118.320312 233.503906 C 117.941406 233.25 117.589844 232.960938 117.261719 232.640625 L 102.304688 217.636719 C 101.984375 217.3125 101.695312 216.960938 101.441406 216.582031 C 101.1875 216.199219 100.972656 215.796875 100.796875 215.375 C 100.621094 214.953125 100.492188 214.515625 100.402344 214.066406 C 100.3125 213.617188 100.265625 213.164062 100.265625 212.707031 C 100.265625 212.25 100.3125 211.796875 100.402344 211.347656 C 100.492188 210.898438 100.621094 210.460938 100.796875 210.039062 C 100.972656 209.617188 101.1875 209.214844 101.441406 208.832031 C 101.695312 208.453125 101.984375 208.101562 102.304688 207.777344 L 120.574219 189.523438 C 120.84375 189.253906 121 188.929688 121.042969 188.550781 C 121.082031 188.171875 121.003906 187.824219 120.800781 187.5 C 116.402344 180.453125 113.207031 172.898438 111.226562 164.832031 C 111.132812 164.46875 110.941406 164.167969 110.644531 163.9375 C 110.347656 163.707031 110.011719 163.589844 109.636719 163.585938 L 83.570312 163.585938 C 83.113281 163.585938 82.65625 163.542969 82.207031 163.453125 C 81.757812 163.363281 81.320312 163.230469 80.894531 163.054688 C 80.472656 162.878906 80.066406 162.664062 79.6875 162.410156 C 79.304688 162.15625 78.949219 161.863281 78.625 161.539062 C 78.300781 161.214844 78.011719 160.863281 77.757812 160.480469 C 77.5 160.101562 77.285156 159.699219 77.109375 159.273438 C 76.933594 158.847656 76.800781 158.414062 76.710938 157.960938 C 76.621094 157.511719 76.578125 157.058594 76.578125 156.597656 L 76.578125 135.425781 C 76.578125 134.964844 76.621094 134.511719 76.710938 134.0625 C 76.800781 133.613281 76.933594 133.175781 77.109375 132.75 C 77.285156 132.328125 77.5 131.925781 77.757812 131.542969 C 78.011719 131.160156 78.300781 130.808594 78.625 130.484375 C 78.949219 130.160156 79.304688 129.871094 79.6875 129.613281 C 80.066406 129.359375 80.472656 129.144531 80.894531 128.96875 C 81.320312 128.792969 81.757812 128.660156 82.207031 128.570312 C 82.65625 128.480469 83.113281 128.4375 83.570312 128.4375 L 109.636719 128.4375 C 110.011719 128.433594 110.347656 128.316406 110.644531 128.085938 C 110.941406 127.851562 111.132812 127.554688 111.226562 127.1875 C 113.183594 119.234375 116.316406 111.773438 120.625 104.804688 C 120.824219 104.480469 120.902344 104.132812 120.859375 103.757812 C 120.816406 103.378906 120.660156 103.058594 120.390625 102.789062 L 102.066406 84.480469 C 101.746094 84.15625 101.457031 83.804688 101.203125 83.421875 C 100.949219 83.042969 100.734375 82.640625 100.558594 82.21875 C 100.382812 81.796875 100.253906 81.359375 100.164062 80.910156 C 100.074219 80.460938 100.03125 80.007812 100.03125 79.550781 C 100.03125 79.09375 100.074219 78.640625 100.164062 78.191406 C 100.253906 77.742188 100.382812 77.304688 100.558594 76.882812 C 100.734375 76.460938 100.949219 76.058594 101.203125 75.675781 C 101.457031 75.296875 101.746094 74.941406 102.066406 74.617188 L 117.066406 59.648438 C 117.390625 59.328125 117.746094 59.039062 118.125 58.785156 C 118.507812 58.53125 118.910156 58.316406 119.332031 58.144531 C 119.757812 57.96875 120.191406 57.835938 120.640625 57.746094 C 121.089844 57.65625 121.546875 57.613281 122.003906 57.613281 C 122.460938 57.613281 122.914062 57.65625 123.363281 57.746094 C 123.8125 57.835938 124.25 57.96875 124.671875 58.144531 C 125.097656 58.316406 125.5 58.53125 125.878906 58.785156 C 126.261719 59.039062 126.613281 59.328125 126.9375 59.648438 L 145.492188 78.191406 C 145.757812 78.457031 146.074219 78.609375 146.445312 78.65625 C 146.816406 78.703125 147.164062 78.628906 147.488281 78.4375 C 154.132812 74.496094 161.207031 71.601562 168.714844 69.761719 C 169.082031 69.667969 169.378906 69.476562 169.613281 69.179688 C 169.847656 68.882812 169.964844 68.546875 169.964844 68.171875 L 169.964844 42.128906 C 169.964844 41.667969 170.007812 41.214844 170.097656 40.765625 C 170.1875 40.316406 170.320312 39.878906 170.496094 39.453125 C 170.671875 39.03125 170.886719 38.628906 171.144531 38.246094 C 171.398438 37.863281 171.6875 37.511719 172.011719 37.1875 C 172.339844 36.863281 172.691406 36.574219 173.074219 36.316406 C 173.453125 36.0625 173.859375 35.847656 174.28125 35.671875 C 174.707031 35.496094 175.144531 35.363281 175.59375 35.273438 C 176.042969 35.183594 176.5 35.140625 176.957031 35.140625 L 198.164062 35.140625 C 198.625 35.140625 199.078125 35.183594 199.527344 35.273438 C 199.980469 35.363281 200.417969 35.496094 200.839844 35.671875 C 201.265625 35.847656 201.667969 36.0625 202.050781 36.316406 C 202.429688 36.574219 202.785156 36.863281 203.109375 37.1875 C 203.433594 37.511719 203.722656 37.863281 203.980469 38.246094 C 204.234375 38.628906 204.449219 39.03125 204.625 39.453125 C 204.800781 39.878906 204.933594 40.316406 205.023438 40.765625 C 205.113281 41.214844 205.15625 41.667969 205.15625 42.128906 L 205.15625 68.171875 C 205.160156 68.546875 205.277344 68.882812 205.507812 69.179688 C 205.738281 69.476562 206.039062 69.667969 206.402344 69.761719 C 214.3125 71.707031 221.738281 74.8125 228.675781 79.078125 C 229 79.277344 229.347656 79.351562 229.722656 79.308594 C 230.101562 79.261719 230.421875 79.109375 230.691406 78.839844 L 249.039062 60.511719 C 249.363281 60.1875 249.714844 59.902344 250.097656 59.648438 C 250.476562 59.394531 250.878906 59.179688 251.304688 59.003906 C 251.726562 58.828125 252.164062 58.699219 252.613281 58.609375 C 253.0625 58.519531 253.515625 58.476562 253.972656 58.476562 C 254.429688 58.476562 254.882812 58.519531 255.335938 58.609375 C 255.785156 58.699219 256.21875 58.828125 256.644531 59.003906 C 257.066406 59.179688 257.46875 59.394531 257.851562 59.648438 C 258.230469 59.902344 258.582031 60.1875 258.910156 60.511719 L 273.875 75.484375 C 274.199219 75.808594 274.488281 76.164062 274.742188 76.542969 C 274.996094 76.925781 275.210938 77.324219 275.382812 77.75 C 275.558594 78.171875 275.691406 78.609375 275.78125 79.058594 C 275.871094 79.507812 275.914062 79.960938 275.914062 80.417969 C 275.914062 80.875 275.871094 81.328125 275.78125 81.777344 C 275.691406 82.226562 275.558594 82.660156 275.382812 83.085938 C 275.210938 83.507812 274.996094 83.910156 274.742188 84.289062 C 274.488281 84.671875 274.199219 85.023438 273.875 85.347656 L 255.335938 103.867188 C 255.074219 104.132812 254.917969 104.449219 254.871094 104.820312 C 254.824219 105.191406 254.898438 105.539062 255.089844 105.859375 C 259.082031 112.535156 262.003906 119.652344 263.863281 127.203125 C 263.953125 127.570312 264.148438 127.867188 264.445312 128.101562 C 264.742188 128.335938 265.078125 128.449219 265.453125 128.449219 L 291.523438 128.449219 C 291.984375 128.449219 292.4375 128.496094 292.886719 128.585938 C 293.339844 128.675781 293.777344 128.808594 294.199219 128.984375 C 294.625 129.160156 295.027344 129.375 295.410156 129.628906 C 295.789062 129.882812 296.144531 130.171875 296.46875 130.496094 C 296.792969 130.820312 297.082031 131.175781 297.339844 131.558594 C 297.59375 131.9375 297.808594 132.339844 297.984375 132.765625 C 298.160156 133.1875 298.292969 133.625 298.382812 134.074219 C 298.472656 134.527344 298.515625 134.980469 298.515625 135.4375 Z M 298.515625 156.613281 " fill-opacity="1" fill-rule="nonzero"/></g><path fill="#231f20" d="M 200.21875 161.929688 C 200.417969 162.019531 200.625 162.066406 200.84375 162.074219 C 201.058594 162.082031 201.269531 162.046875 201.472656 161.96875 C 201.675781 161.894531 201.855469 161.78125 202.011719 161.632812 C 202.171875 161.484375 202.292969 161.3125 202.382812 161.113281 C 203.710938 158.183594 207.625 157.082031 211.101562 158.660156 C 211.9375 159.019531 212.683594 159.519531 213.335938 160.152344 C 213.988281 160.789062 214.511719 161.515625 214.898438 162.339844 C 215.242188 163.042969 215.425781 163.789062 215.441406 164.574219 C 215.460938 165.359375 215.3125 166.109375 215 166.828125 C 214.910156 167.027344 214.863281 167.234375 214.855469 167.449219 C 214.847656 167.667969 214.882812 167.875 214.960938 168.078125 C 215.035156 168.28125 215.148438 168.460938 215.296875 168.621094 C 215.441406 168.777344 215.613281 168.902344 215.8125 168.992188 C 216.027344 169.089844 216.25 169.140625 216.488281 169.140625 C 216.808594 169.140625 217.105469 169.050781 217.375 168.878906 C 217.644531 168.707031 217.847656 168.472656 217.980469 168.179688 C 218.488281 167.03125 218.734375 165.828125 218.71875 164.570312 C 218.699219 163.3125 218.421875 162.117188 217.878906 160.984375 C 217.324219 159.800781 216.582031 158.753906 215.648438 157.839844 C 214.714844 156.929688 213.648438 156.207031 212.453125 155.679688 C 207.324219 153.351562 201.480469 155.191406 199.398438 159.761719 C 199.308594 159.960938 199.261719 160.167969 199.253906 160.386719 C 199.246094 160.601562 199.28125 160.8125 199.359375 161.015625 C 199.4375 161.21875 199.550781 161.398438 199.699219 161.558594 C 199.847656 161.714844 200.023438 161.839844 200.21875 161.929688 Z M 200.21875 161.929688 " fill-opacity="1" fill-rule="nonzero"/><path fill="#231f20" d="M 161.351562 149.472656 C 161.558594 149.539062 161.769531 149.5625 161.988281 149.546875 C 162.203125 149.53125 162.410156 149.472656 162.601562 149.375 C 162.796875 149.273438 162.964844 149.140625 163.105469 148.976562 C 163.246094 148.8125 163.347656 148.625 163.414062 148.417969 C 164.40625 145.359375 168.078125 143.792969 171.5625 144.925781 C 175.050781 146.054688 177.109375 149.464844 176.113281 152.527344 C 176.046875 152.734375 176.023438 152.945312 176.039062 153.160156 C 176.054688 153.378906 176.113281 153.582031 176.214844 153.777344 C 176.3125 153.96875 176.445312 154.136719 176.609375 154.277344 C 176.773438 154.417969 176.960938 154.519531 177.167969 154.585938 C 177.332031 154.640625 177.5 154.671875 177.671875 154.671875 C 178.027344 154.667969 178.347656 154.566406 178.632812 154.355469 C 178.917969 154.148438 179.117188 153.875 179.226562 153.539062 C 180.773438 148.757812 177.789062 143.503906 172.570312 141.8125 C 167.355469 140.121094 161.847656 142.636719 160.304688 147.402344 C 160.234375 147.609375 160.207031 147.820312 160.222656 148.039062 C 160.242188 148.257812 160.296875 148.460938 160.394531 148.65625 C 160.496094 148.851562 160.628906 149.019531 160.792969 149.160156 C 160.957031 149.300781 161.144531 149.40625 161.351562 149.472656 Z M 161.351562 149.472656 " fill-opacity="1" fill-rule="nonzero"/><path fill="#231f20" d="M 192.285156 172.3125 C 190.789062 173.863281 189.488281 174.578125 188.601562 174.324219 C 187.5 174.015625 186.660156 172.257812 186.269531 170.984375 C 189.277344 171.414062 191.910156 170.425781 192.554688 168.445312 C 193.320312 166.078125 190.941406 163.1875 187.238281 161.988281 C 183.539062 160.792969 179.914062 161.742188 179.148438 164.109375 C 178.503906 166.109375 180.082031 168.480469 182.824219 169.890625 C 181.941406 170.695312 180.449219 171.726562 179.445312 171.433594 C 178.4375 171.140625 177.578125 169.351562 177.113281 166.535156 C 177.085938 166.3125 177.019531 166.105469 176.90625 165.910156 C 176.792969 165.714844 176.648438 165.550781 176.46875 165.417969 C 176.289062 165.28125 176.089844 165.1875 175.871094 165.136719 C 175.652344 165.082031 175.433594 165.074219 175.210938 165.113281 C 174.988281 165.152344 174.785156 165.230469 174.597656 165.351562 C 174.410156 165.476562 174.25 165.628906 174.125 165.816406 C 174 166.003906 173.917969 166.207031 173.878906 166.425781 C 173.835938 166.648438 173.839844 166.867188 173.890625 167.085938 C 174.613281 171.363281 176.175781 173.882812 178.554688 174.566406 C 180.480469 175.132812 182.351562 174.296875 183.683594 173.378906 C 184.398438 174.988281 185.660156 176.878906 187.710938 177.46875 C 188.132812 177.589844 188.558594 177.652344 188.996094 177.652344 C 190.789062 177.652344 192.6875 176.621094 194.652344 174.585938 C 194.78125 174.429688 194.875 174.253906 194.9375 174.058594 C 194.996094 173.863281 195.023438 173.667969 195.011719 173.464844 C 194.996094 173.261719 194.949219 173.066406 194.863281 172.882812 C 194.78125 172.699219 194.664062 172.535156 194.519531 172.394531 C 194.375 172.25 194.207031 172.140625 194.019531 172.0625 C 193.835938 171.980469 193.640625 171.9375 193.4375 171.929688 C 193.234375 171.921875 193.035156 171.953125 192.84375 172.019531 C 192.652344 172.082031 192.476562 172.183594 192.320312 172.3125 Z M 192.285156 172.3125 " fill-opacity="1" fill-rule="nonzero"/><path fill="#231f20" d="M 175.921875 159.59375 C 176.003906 159.796875 176.117188 159.976562 176.265625 160.132812 C 176.414062 160.289062 176.589844 160.410156 176.789062 160.496094 C 176.984375 160.582031 177.191406 160.628906 177.410156 160.636719 C 177.625 160.640625 177.832031 160.605469 178.035156 160.527344 C 178.523438 160.335938 190.0625 156.0625 195.828125 167.671875 C 195.925781 167.867188 196.054688 168.035156 196.21875 168.175781 C 196.382812 168.320312 196.566406 168.425781 196.773438 168.496094 C 196.976562 168.5625 197.1875 168.589844 197.40625 168.574219 C 197.621094 168.5625 197.828125 168.503906 198.019531 168.410156 C 198.214844 168.3125 198.382812 168.183594 198.527344 168.019531 C 198.667969 167.855469 198.773438 167.671875 198.84375 167.46875 C 198.914062 167.261719 198.941406 167.050781 198.925781 166.835938 C 198.914062 166.617188 198.855469 166.414062 198.761719 166.21875 C 191.640625 151.902344 176.996094 157.425781 176.847656 157.480469 C 176.644531 157.558594 176.464844 157.671875 176.308594 157.824219 C 176.152344 157.972656 176.03125 158.148438 175.945312 158.347656 C 175.859375 158.542969 175.816406 158.75 175.8125 158.96875 C 175.804688 159.183594 175.84375 159.394531 175.921875 159.59375 Z M 175.921875 159.59375 " fill-opacity="1" fill-rule="nonzero"/><path fill="#ffffff" d="M 185.832031 163.765625 C 185.832031 163.929688 185.777344 164.085938 185.667969 164.238281 C 185.554688 164.386719 185.398438 164.523438 185.195312 164.636719 C 184.992188 164.753906 184.757812 164.84375 184.492188 164.90625 C 184.222656 164.96875 183.945312 165 183.660156 165 C 183.371094 165 183.09375 164.96875 182.828125 164.90625 C 182.5625 164.84375 182.324219 164.753906 182.121094 164.636719 C 181.917969 164.523438 181.761719 164.386719 181.652344 164.238281 C 181.542969 164.085938 181.484375 163.929688 181.484375 163.765625 C 181.484375 163.601562 181.542969 163.441406 181.652344 163.292969 C 181.761719 163.140625 181.917969 163.007812 182.121094 162.890625 C 182.324219 162.777344 182.5625 162.6875 182.828125 162.625 C 183.09375 162.5625 183.371094 162.53125 183.660156 162.53125 C 183.945312 162.53125 184.222656 162.5625 184.492188 162.625 C 184.757812 162.6875 184.992188 162.777344 185.195312 162.890625 C 185.398438 163.007812 185.554688 163.140625 185.667969 163.292969 C 185.777344 163.441406 185.832031 163.601562 185.832031 163.765625 Z M 185.832031 163.765625 " fill-opacity="1" fill-rule="nonzero"/><g fill="#231f20" fill-opacity="1"><g transform="translate(2.537262, 330.544511)"><g><path d="M 1.3125 -6.3125 C 1.3125 -7.15625 1.628906 -8.003906 2.265625 -8.859375 C 2.910156 -9.722656 3.632812 -10.15625 4.4375 -10.15625 C 4.914062 -10.15625 5.457031 -9.929688 6.0625 -9.484375 C 6.664062 -9.046875 7.25 -8.5625 7.8125 -8.03125 C 8.382812 -7.507812 9.203125 -7.023438 10.265625 -6.578125 C 11.328125 -6.140625 12.5 -5.921875 13.78125 -5.921875 C 15.53125 -5.921875 16.988281 -6.320312 18.15625 -7.125 C 19.332031 -7.9375 19.921875 -9.128906 19.921875 -10.703125 C 19.921875 -11.796875 19.597656 -12.769531 18.953125 -13.625 C 18.316406 -14.488281 17.476562 -15.203125 16.4375 -15.765625 C 15.394531 -16.335938 14.25 -16.890625 13 -17.421875 C 11.757812 -17.953125 10.507812 -18.546875 9.25 -19.203125 C 7.988281 -19.859375 6.832031 -20.597656 5.78125 -21.421875 C 4.738281 -22.242188 3.898438 -23.34375 3.265625 -24.71875 C 2.628906 -26.09375 2.3125 -27.65625 2.3125 -29.40625 C 2.3125 -31.351562 2.703125 -33.066406 3.484375 -34.546875 C 4.273438 -36.023438 5.328125 -37.175781 6.640625 -38 C 7.953125 -38.820312 9.359375 -39.425781 10.859375 -39.8125 C 12.359375 -40.195312 13.953125 -40.390625 15.640625 -40.390625 C 16.585938 -40.390625 17.59375 -40.320312 18.65625 -40.1875 C 19.71875 -40.0625 20.84375 -39.851562 22.03125 -39.5625 C 23.21875 -39.269531 24.1875 -38.8125 24.9375 -38.1875 C 25.6875 -37.570312 26.0625 -36.84375 26.0625 -36 C 26.0625 -35.195312 25.804688 -34.363281 25.296875 -33.5 C 24.785156 -32.644531 24.09375 -32.21875 23.21875 -32.21875 C 22.882812 -32.21875 21.984375 -32.5625 20.515625 -33.25 C 19.054688 -33.945312 17.429688 -34.296875 15.640625 -34.296875 C 13.660156 -34.296875 12.128906 -33.921875 11.046875 -33.171875 C 9.972656 -32.421875 9.4375 -31.390625 9.4375 -30.078125 C 9.4375 -29.015625 9.875 -28.085938 10.75 -27.296875 C 11.632812 -26.515625 12.722656 -25.875 14.015625 -25.375 C 15.316406 -24.882812 16.722656 -24.265625 18.234375 -23.515625 C 19.753906 -22.765625 21.164062 -21.945312 22.46875 -21.0625 C 23.769531 -20.1875 24.859375 -18.914062 25.734375 -17.25 C 26.609375 -15.59375 27.046875 -13.644531 27.046875 -11.40625 C 27.046875 -7.601562 25.847656 -4.664062 23.453125 -2.59375 C 21.054688 -0.53125 17.90625 0.5 14 0.5 C 10.519531 0.5 7.535156 -0.210938 5.046875 -1.640625 C 2.554688 -3.066406 1.3125 -4.625 1.3125 -6.3125 Z M 1.3125 -6.3125 "/></g></g></g><g fill="#231f20" fill-opacity="1"><g transform="translate(31.183236, 330.544511)"><g><path d="M 3.296875 -2.25 L 3.296875 -37.921875 C 3.296875 -38.648438 3.640625 -39.195312 4.328125 -39.5625 C 5.023438 -39.925781 5.867188 -40.109375 6.859375 -40.109375 C 7.847656 -40.109375 8.6875 -39.925781 9.375 -39.5625 C 10.070312 -39.195312 10.421875 -38.648438 10.421875 -37.921875 L 10.421875 -23.59375 L 22.765625 -23.59375 L 22.765625 -37.921875 C 22.765625 -38.648438 23.113281 -39.195312 23.8125 -39.5625 C 24.507812 -39.925781 25.351562 -40.109375 26.34375 -40.109375 C 27.332031 -40.109375 28.171875 -39.925781 28.859375 -39.5625 C 29.554688 -39.195312 29.90625 -38.648438 29.90625 -37.921875 L 29.90625 -2.25 C 29.90625 -1.550781 29.546875 -1 28.828125 -0.59375 C 28.117188 -0.195312 27.289062 0 26.34375 0 C 25.351562 0 24.507812 -0.195312 23.8125 -0.59375 C 23.113281 -1 22.765625 -1.550781 22.765625 -2.25 L 22.765625 -18 L 10.421875 -18 L 10.421875 -2.25 C 10.421875 -1.550781 10.0625 -1 9.34375 -0.59375 C 8.632812 -0.195312 7.804688 0 6.859375 0 C 5.867188 0 5.023438 -0.195312 4.328125 -0.59375 C 3.640625 -1 3.296875 -1.550781 3.296875 -2.25 Z M 3.296875 -2.25 "/></g></g></g><g fill="#231f20" fill-opacity="1"><g transform="translate(64.38403, 330.544511)"><g><path d="M 3.296875 -2.25 L 3.296875 -37.921875 C 3.296875 -38.648438 3.640625 -39.195312 4.328125 -39.5625 C 5.023438 -39.925781 5.867188 -40.109375 6.859375 -40.109375 C 7.847656 -40.109375 8.6875 -39.925781 9.375 -39.5625 C 10.070312 -39.195312 10.421875 -38.648438 10.421875 -37.921875 L 10.421875 -2.25 C 10.421875 -1.550781 10.0625 -1 9.34375 -0.59375 C 8.632812 -0.195312 7.804688 0 6.859375 0 C 5.867188 0 5.023438 -0.195312 4.328125 -0.59375 C 3.640625 -1 3.296875 -1.550781 3.296875 -2.25 Z M 3.296875 -2.25 "/></g></g></g><g fill="#231f20" fill-opacity="1"><g transform="translate(78.103376, 330.544511)"><g><path d="M 3.296875 -2.1875 L 3.296875 -37.859375 C 3.296875 -38.554688 3.601562 -39.101562 4.21875 -39.5 C 4.84375 -39.90625 5.578125 -40.109375 6.421875 -40.109375 L 17.015625 -40.109375 C 24.367188 -40.109375 28.046875 -36.890625 28.046875 -30.453125 C 28.046875 -25.992188 26.488281 -23.085938 23.375 -21.734375 C 25.238281 -21.003906 26.644531 -19.96875 27.59375 -18.625 C 28.550781 -17.289062 29.03125 -15.34375 29.03125 -12.78125 L 29.03125 -11.640625 C 29.03125 -7.578125 28.039062 -4.617188 26.0625 -2.765625 C 24.09375 -0.921875 21.421875 0 18.046875 0 L 6.421875 0 C 5.503906 0 4.753906 -0.21875 4.171875 -0.65625 C 3.585938 -1.09375 3.296875 -1.601562 3.296875 -2.1875 Z M 10.375 -6.25 L 16.578125 -6.25 C 20.117188 -6.25 21.890625 -8.242188 21.890625 -12.234375 L 21.890625 -13.109375 C 21.890625 -15.160156 21.441406 -16.644531 20.546875 -17.5625 C 19.648438 -18.476562 18.328125 -18.9375 16.578125 -18.9375 L 10.375 -18.9375 Z M 10.375 -24.53125 L 16.515625 -24.53125 C 17.941406 -24.53125 19.03125 -24.945312 19.78125 -25.78125 C 20.53125 -26.625 20.90625 -27.78125 20.90625 -29.25 C 20.90625 -30.675781 20.507812 -31.800781 19.71875 -32.625 C 18.9375 -33.445312 17.851562 -33.859375 16.46875 -33.859375 L 10.375 -33.859375 Z M 10.375 -24.53125 "/></g></g></g><g fill="#231f20" fill-opacity="1"><g transform="translate(108.944454, 330.544511)"><g><path d="M 0.5 -2.96875 C 0.5 -3.039062 0.535156 -3.222656 0.609375 -3.515625 L 11.1875 -38.03125 C 11.414062 -38.800781 11.957031 -39.394531 12.8125 -39.8125 C 13.675781 -40.226562 14.65625 -40.4375 15.75 -40.4375 C 16.84375 -40.4375 17.828125 -40.226562 18.703125 -39.8125 C 19.585938 -39.394531 20.140625 -38.800781 20.359375 -38.03125 L 30.953125 -3.515625 C 31.023438 -3.222656 31.0625 -3.039062 31.0625 -2.96875 C 31.0625 -2.15625 30.566406 -1.457031 29.578125 -0.875 C 28.585938 -0.289062 27.582031 0 26.5625 0 C 25.207031 0 24.398438 -0.472656 24.140625 -1.421875 L 22.0625 -8.71875 L 9.5 -8.71875 L 7.40625 -1.421875 C 7.15625 -0.472656 6.351562 0 5 0 C 3.9375 0 2.921875 -0.28125 1.953125 -0.84375 C 0.984375 -1.414062 0.5 -2.125 0.5 -2.96875 Z M 10.96875 -14.328125 L 20.515625 -14.328125 L 15.75 -31.171875 Z M 10.96875 -14.328125 "/></g></g></g><g fill="#231f20" fill-opacity="1"><g transform="translate(140.498928, 330.544511)"><g/></g></g><g fill="#231f20" fill-opacity="1"><g transform="translate(151.474401, 330.544511)"><g><path d="M 3.296875 -2.25 L 3.296875 -37.921875 C 3.296875 -38.648438 3.640625 -39.195312 4.328125 -39.5625 C 5.023438 -39.925781 5.867188 -40.109375 6.859375 -40.109375 C 7.847656 -40.109375 8.6875 -39.925781 9.375 -39.5625 C 10.070312 -39.195312 10.421875 -38.648438 10.421875 -37.921875 L 10.421875 -23.59375 L 22.765625 -23.59375 L 22.765625 -37.921875 C 22.765625 -38.648438 23.113281 -39.195312 23.8125 -39.5625 C 24.507812 -39.925781 25.351562 -40.109375 26.34375 -40.109375 C 27.332031 -40.109375 28.171875 -39.925781 28.859375 -39.5625 C 29.554688 -39.195312 29.90625 -38.648438 29.90625 -37.921875 L 29.90625 -2.25 C 29.90625 -1.550781 29.546875 -1 28.828125 -0.59375 C 28.117188 -0.195312 27.289062 0 26.34375 0 C 25.351562 0 24.507812 -0.195312 23.8125 -0.59375 C 23.113281 -1 22.765625 -1.550781 22.765625 -2.25 L 22.765625 -18 L 10.421875 -18 L 10.421875 -2.25 C 10.421875 -1.550781 10.0625 -1 9.34375 -0.59375 C 8.632812 -0.195312 7.804688 0 6.859375 0 C 5.867188 0 5.023438 -0.195312 4.328125 -0.59375 C 3.640625 -1 3.296875 -1.550781 3.296875 -2.25 Z M 3.296875 -2.25 "/></g></g></g><g fill="#231f20" fill-opacity="1"><g transform="translate(184.675195, 330.544511)"><g><path d="M 2.859375 -12.234375 L 2.859375 -27.546875 C 2.859375 -31.898438 4.019531 -35.082031 6.34375 -37.09375 C 8.664062 -39.101562 11.78125 -40.109375 15.6875 -40.109375 C 19.601562 -40.109375 22.734375 -39.101562 25.078125 -37.09375 C 27.421875 -35.082031 28.59375 -31.898438 28.59375 -27.546875 L 28.59375 -12.234375 C 28.59375 -7.878906 27.421875 -4.695312 25.078125 -2.6875 C 22.734375 -0.675781 19.601562 0.328125 15.6875 0.328125 C 11.78125 0.328125 8.664062 -0.675781 6.34375 -2.6875 C 4.019531 -4.695312 2.859375 -7.878906 2.859375 -12.234375 Z M 9.984375 -12.234375 C 9.984375 -8.023438 11.882812 -5.921875 15.6875 -5.921875 C 19.53125 -5.921875 21.453125 -8.023438 21.453125 -12.234375 L 21.453125 -27.546875 C 21.453125 -31.753906 19.53125 -33.859375 15.6875 -33.859375 C 11.882812 -33.859375 9.984375 -31.753906 9.984375 -27.546875 Z M 9.984375 -12.234375 "/></g></g></g><g fill="#231f20" fill-opacity="1"><g transform="translate(216.065041, 330.544511)"><g><path d="M 3.296875 -2.25 L 3.296875 -36.546875 C 3.296875 -37.753906 3.632812 -38.648438 4.3125 -39.234375 C 4.988281 -39.816406 5.835938 -40.109375 6.859375 -40.109375 C 8.210938 -40.109375 9.253906 -39.867188 9.984375 -39.390625 C 10.710938 -38.921875 11.519531 -37.898438 12.40625 -36.328125 L 19.15625 -24.03125 L 25.90625 -36.328125 C 26.78125 -37.898438 27.59375 -38.921875 28.34375 -39.390625 C 29.09375 -39.867188 30.144531 -40.109375 31.5 -40.109375 C 32.519531 -40.109375 33.367188 -39.816406 34.046875 -39.234375 C 34.722656 -38.648438 35.0625 -37.753906 35.0625 -36.546875 L 35.0625 -2.25 C 35.0625 -1.550781 34.703125 -1 33.984375 -0.59375 C 33.273438 -0.195312 32.445312 0 31.5 0 C 30.507812 0 29.664062 -0.195312 28.96875 -0.59375 C 28.28125 -1 27.9375 -1.550781 27.9375 -2.25 L 27.9375 -25.84375 L 21.515625 -14.4375 C 21.003906 -13.476562 20.195312 -13 19.09375 -13 C 18.03125 -13 17.242188 -13.476562 16.734375 -14.4375 L 10.421875 -26.28125 L 10.421875 -2.25 C 10.421875 -1.550781 10.0625 -1 9.34375 -0.59375 C 8.632812 -0.195312 7.804688 0 6.859375 0 C 5.867188 0 5.023438 -0.195312 4.328125 -0.59375 C 3.640625 -1 3.296875 -1.550781 3.296875 -2.25 Z M 3.296875 -2.25 "/></g></g></g><g fill="#231f20" fill-opacity="1"><g transform="translate(254.424306, 330.544511)"><g><path d="M 3.296875 -2.25 L 3.296875 -37.859375 C 3.296875 -38.554688 3.601562 -39.101562 4.21875 -39.5 C 4.84375 -39.90625 5.578125 -40.109375 6.421875 -40.109375 L 25.953125 -40.109375 C 26.679688 -40.109375 27.238281 -39.796875 27.625 -39.171875 C 28.007812 -38.554688 28.203125 -37.847656 28.203125 -37.046875 C 28.203125 -36.160156 28 -35.40625 27.59375 -34.78125 C 27.195312 -34.164062 26.648438 -33.859375 25.953125 -33.859375 L 10.421875 -33.859375 L 10.421875 -22.890625 L 18.765625 -22.890625 C 19.460938 -22.890625 20.007812 -22.601562 20.40625 -22.03125 C 20.8125 -21.46875 21.015625 -20.800781 21.015625 -20.03125 C 21.015625 -19.332031 20.820312 -18.695312 20.4375 -18.125 C 20.050781 -17.5625 19.492188 -17.28125 18.765625 -17.28125 L 10.421875 -17.28125 L 10.421875 -6.25 L 25.953125 -6.25 C 26.648438 -6.25 27.195312 -5.9375 27.59375 -5.3125 C 28 -4.695312 28.203125 -3.953125 28.203125 -3.078125 C 28.203125 -2.265625 28.007812 -1.546875 27.625 -0.921875 C 27.238281 -0.304688 26.679688 0 25.953125 0 L 6.421875 0 C 5.578125 0 4.84375 -0.195312 4.21875 -0.59375 C 3.601562 -1 3.296875 -1.550781 3.296875 -2.25 Z M 3.296875 -2.25 "/></g></g></g><g fill="#231f20" fill-opacity="1"><g transform="translate(283.5093, 330.544511)"><g><path d="M 3.296875 -2.25 L 3.296875 -37.921875 C 3.296875 -38.648438 3.640625 -39.195312 4.328125 -39.5625 C 5.023438 -39.925781 5.867188 -40.109375 6.859375 -40.109375 C 7.847656 -40.109375 8.6875 -39.925781 9.375 -39.5625 C 10.070312 -39.195312 10.421875 -38.648438 10.421875 -37.921875 L 10.421875 -6.25 L 23.8125 -6.25 C 24.46875 -6.25 24.988281 -5.9375 25.375 -5.3125 C 25.757812 -4.695312 25.953125 -3.96875 25.953125 -3.125 C 25.953125 -2.28125 25.757812 -1.546875 25.375 -0.921875 C 24.988281 -0.304688 24.46875 0 23.8125 0 L 6.421875 0 C 5.578125 0 4.84375 -0.195312 4.21875 -0.59375 C 3.601562 -1 3.296875 -1.550781 3.296875 -2.25 Z M 3.296875 -2.25 "/></g></g></g><g fill="#231f20" fill-opacity="1"><g transform="translate(310.069931, 330.544511)"><g><path d="M 0.5 -2.96875 C 0.5 -3.039062 0.535156 -3.222656 0.609375 -3.515625 L 11.1875 -38.03125 C 11.414062 -38.800781 11.957031 -39.394531 12.8125 -39.8125 C 13.675781 -40.226562 14.65625 -40.4375 15.75 -40.4375 C 16.84375 -40.4375 17.828125 -40.226562 18.703125 -39.8125 C 19.585938 -39.394531 20.140625 -38.800781 20.359375 -38.03125 L 30.953125 -3.515625 C 31.023438 -3.222656 31.0625 -3.039062 31.0625 -2.96875 C 31.0625 -2.15625 30.566406 -1.457031 29.578125 -0.875 C 28.585938 -0.289062 27.582031 0 26.5625 0 C 25.207031 0 24.398438 -0.472656 24.140625 -1.421875 L 22.0625 -8.71875 L 9.5 -8.71875 L 7.40625 -1.421875 C 7.15625 -0.472656 6.351562 0 5 0 C 3.9375 0 2.921875 -0.28125 1.953125 -0.84375 C 0.984375 -1.414062 0.5 -2.125 0.5 -2.96875 Z M 10.96875 -14.328125 L 20.515625 -14.328125 L 15.75 -31.171875 Z M 10.96875 -14.328125 "/></g></g></g><g fill="#231f20" fill-opacity="1"><g transform="translate(341.624423, 330.544511)"><g><path d="M 3.296875 -2.1875 L 3.296875 -37.859375 C 3.296875 -38.554688 3.601562 -39.101562 4.21875 -39.5 C 4.84375 -39.90625 5.578125 -40.109375 6.421875 -40.109375 L 17.015625 -40.109375 C 24.367188 -40.109375 28.046875 -36.890625 28.046875 -30.453125 C 28.046875 -25.992188 26.488281 -23.085938 23.375 -21.734375 C 25.238281 -21.003906 26.644531 -19.96875 27.59375 -18.625 C 28.550781 -17.289062 29.03125 -15.34375 29.03125 -12.78125 L 29.03125 -11.640625 C 29.03125 -7.578125 28.039062 -4.617188 26.0625 -2.765625 C 24.09375 -0.921875 21.421875 0 18.046875 0 L 6.421875 0 C 5.503906 0 4.753906 -0.21875 4.171875 -0.65625 C 3.585938 -1.09375 3.296875 -1.601562 3.296875 -2.1875 Z M 10.375 -6.25 L 16.578125 -6.25 C 20.117188 -6.25 21.890625 -8.242188 21.890625 -12.234375 L 21.890625 -13.109375 C 21.890625 -15.160156 21.441406 -16.644531 20.546875 -17.5625 C 19.648438 -18.476562 18.328125 -18.9375 16.578125 -18.9375 L 10.375 -18.9375 Z M 10.375 -24.53125 L 16.515625 -24.53125 C 17.941406 -24.53125 19.03125 -24.945312 19.78125 -25.78125 C 20.53125 -26.625 20.90625 -27.78125 20.90625 -29.25 C 20.90625 -30.675781 20.507812 -31.800781 19.71875 -32.625 C 18.9375 -33.445312 17.851562 -33.859375 16.46875 -33.859375 L 10.375 -33.859375 Z M 10.375 -24.53125 "/></g></g></g></svg>